<svg id="logo" xmlns="http://www.w3.org/2000/svg" xmlns:xlink="http://www.w3.org/1999/xlink" width="151.876" height="48.802" viewBox="0 0 151.876 48.802">
  <defs>
    <clipPath id="clip-path">
      <rect id="Rectangle_81" data-name="Rectangle 81" width="151.876" height="48.802" fill="none"/>
    </clipPath>
  </defs>
  <g id="Group_43" data-name="Group 43" clip-path="url(#clip-path)">
    <path id="Path_59" data-name="Path 59" d="M37.482,2.72a26.155,26.155,0,0,0-9.3-2.607A26.173,26.173,0,0,0,10.46,4.726a26.582,26.582,0,0,0-3.075,2.5,23.864,23.864,0,0,0-7.38,17.7l4.27-4.06a19.774,19.774,0,0,1,4.365-9.315A22.565,22.565,0,0,1,10.424,9.65,20.344,20.344,0,0,1,19.5,4.624c8.143-2.083,15.342-.359,21.4,5.124a20.737,20.737,0,0,1,4.355,5.761,2.118,2.118,0,0,1-.5,2.763c-2.071,1.95-4.224,3.987-6.58,6.228q-2.769,2.632-5.531,5.273l-.033.031a10.7,10.7,0,0,1-4.116,2.586A9.794,9.794,0,0,1,19.5,31.221l-.021-.015a3.089,3.089,0,0,0-3.863.256l-.631.6a13.419,13.419,0,0,0,5.387,3.509c5.407,1.765,10.169.824,14.151-2.8,1.893-1.722,3.922-3.614,6.385-5.956q2.161-2.054,4.309-4.121t4.318-4.129l.847-.8a24.681,24.681,0,0,0-4.981-8.945,25.693,25.693,0,0,0-7.923-6.1" transform="translate(0 0.001)" fill="#00408f"/>
    <path id="Path_60" data-name="Path 60" d="M41.942,57.713c-.514.488-1.049.944-1.6,1.373l0,0A22.757,22.757,0,0,1,35.4,61.872a22.321,22.321,0,0,1-13.571,1.311,21.589,21.589,0,0,1-11.179-6.076,20.734,20.734,0,0,1-4.33-6.561,2.059,2.059,0,0,1,.56-2.485l0,0Q9.059,46,11.232,43.927l1.048-1c2.074-1.972,4.105-3.9,6.139-5.817a14.694,14.694,0,0,1,2.528-1.993,9.962,9.962,0,0,1,9.172-.595,8.11,8.11,0,0,1,1.751.971,2.934,2.934,0,0,0,3.71-.223l.751-.715L36,34.3a34.465,34.465,0,0,0-2.826-2.088,13.176,13.176,0,0,0-9.2-1.8,13.789,13.789,0,0,0-7.749,3.856l-.114.109c-.972.941-2.008,1.934-3.262,3.125q-1.409,1.34-2.822,2.675Q8.9,41.235,7.782,42.3c-.112.106-.226.2-.343.3L1.468,48.276a23.708,23.708,0,0,0,6.1,11.218,24.9,24.9,0,0,0,5.731,4.5,26.306,26.306,0,0,0,8.563,3.062,27,27,0,0,0,11.8-.559,25.925,25.925,0,0,0,9.332-4.711c.419-.333.82-.681,1.213-1.032.164-.142.326-.286.484-.436l.055-.054.037-.033L44.8,60.2A23.675,23.675,0,0,0,52.078,40.94l-3.82,3.632a20.2,20.2,0,0,1-6.316,13.142" transform="translate(-0.876 -18.656)" fill="#67c4c7"/>
    <path id="Path_61" data-name="Path 61" d="M146.923,38.3h12.308l-.846,2.335h-8.624V46.16h7.56l-.109,2.309h-7.45V53.5h9.5l-.846,2.335H146.923Z" transform="translate(-87.718 -23.626)" fill="#47484a"/>
    <path id="Path_62" data-name="Path 62" d="M187.323,52.36V38.3h2.838V51.712c0,1.323.464,1.79,1.8,1.79h7.232l-.846,2.335h-7.4c-2.565,0-3.63-1.141-3.63-3.477" transform="translate(-111.838 -23.626)" fill="#47484a"/>
    <rect id="Rectangle_78" data-name="Rectangle 78" width="2.838" height="17.539" transform="translate(91.302 14.672)" fill="#47484a"/>
    <path id="Path_63" data-name="Path 63" d="M249.837,46.99,243.26,38.3h3.357l4.967,6.59,4.749-6.59h3.411l-6.468,8.588,6.741,8.951h-3.412l-5.1-6.875-4.912,6.875h-3.357Z" transform="translate(-145.218 -23.626)" fill="#47484a"/>
    <path id="Path_64" data-name="Path 64" d="M309.022,53.5l-.682,2.335h-1.692a2.649,2.649,0,0,1-2.565-1.245l-3.412-4.8c-.3-.389-.491-.493-1.146-.493h-2.32v6.538h-2.838V38.3h6.713c4.121,0,6.686,1.583,6.686,5.241a5.086,5.086,0,0,1-4.421,5.37l2.729,3.815a1.426,1.426,0,0,0,1.528.778ZM301,46.99c2.593,0,3.875-1.272,3.875-3.321,0-2.205-1.5-3.036-3.9-3.036h-3.766V46.99Z" transform="translate(-175.746 -23.626)" fill="#47484a"/>
    <path id="Path_65" data-name="Path 65" d="M355.179,53.5l-.682,2.335H352.8a2.649,2.649,0,0,1-2.565-1.245l-3.412-4.8c-.3-.389-.491-.493-1.146-.493h-2.32v6.538h-2.838V38.3h6.713c4.121,0,6.686,1.583,6.686,5.241a5.086,5.086,0,0,1-4.421,5.37l2.729,3.815a1.427,1.427,0,0,0,1.528.778Zm-8.023-6.512c2.593,0,3.875-1.272,3.875-3.321,0-2.205-1.5-3.036-3.9-3.036h-3.766V46.99Z" transform="translate(-203.304 -23.626)" fill="#47484a"/>
    <path id="Path_66" data-name="Path 66" d="M149.94,95.287c0,.869-.543,1.273-1.458,1.273h-.861v1.048h-.683v-3.58h1.544c.914,0,1.458.4,1.458,1.258m-.694,0c0-.481-.3-.686-.79-.686h-.834v1.381h.834c.49,0,.79-.21.79-.7" transform="translate(-87.727 -58.006)" fill="#47484a"/>
    <rect id="Rectangle_79" data-name="Rectangle 79" width="0.683" height="3.58" transform="translate(64.139 36.022)" fill="#47484a"/>
    <path id="Path_67" data-name="Path 67" d="M169.517,95.649a1.84,1.84,0,1,1-1.834-1.888,1.729,1.729,0,0,1,1.834,1.888m-2.98.005c0,.828.441,1.324,1.146,1.324s1.14-.5,1.14-1.324-.447-1.325-1.14-1.325-1.146.5-1.146,1.325" transform="translate(-99.011 -57.841)" fill="#47484a"/>
    <path id="Path_68" data-name="Path 68" d="M183.081,94.028v3.58h-.608l-1.882-2.537c0,.117,0,.235,0,.352v2.184h-.645v-3.58h.607l1.883,2.548c-.006-.128-.006-.251-.006-.374V94.028Z" transform="translate(-107.436 -58.006)" fill="#47484a"/>
    <path id="Path_69" data-name="Path 69" d="M195.751,97.056v.552h-2.506v-3.58h2.474v.552h-1.791v.941h1.613v.552h-1.613v.982Z" transform="translate(-115.373 -58.006)" fill="#47484a"/>
    <path id="Path_70" data-name="Path 70" d="M206.978,97.056v.552h-2.506v-3.58h2.474v.552h-1.791v.941h1.613v.552h-1.613v.982Z" transform="translate(-122.076 -58.006)" fill="#47484a"/>
    <path id="Path_71" data-name="Path 71" d="M218.714,97.608h-.758l-.5-.956a.542.542,0,0,0-.554-.323h-.522v1.279H215.7v-3.58h1.424c.872,0,1.421.358,1.421,1.115a1.082,1.082,0,0,1-.694,1.034.691.691,0,0,1,.28.317ZM217.1,95.767c.447,0,.754-.169.754-.6,0-.4-.3-.568-.754-.568h-.721v1.171Z" transform="translate(-128.778 -58.006)" fill="#47484a"/>
    <rect id="Rectangle_80" data-name="Rectangle 80" width="0.683" height="3.58" transform="translate(91.857 36.022)" fill="#47484a"/>
    <path id="Path_72" data-name="Path 72" d="M238.3,94.028v3.58H237.7l-1.882-2.537c0,.117,0,.235,0,.352v2.184h-.645v-3.58h.607l1.883,2.548c-.006-.128-.006-.251-.006-.374V94.028Z" transform="translate(-140.406 -58.006)" fill="#47484a"/>
    <path id="Path_73" data-name="Path 73" d="M251.168,95.542v1.78a4.2,4.2,0,0,1-1.371.225,1.733,1.733,0,0,1-1.877-1.877,1.78,1.78,0,0,1,1.968-1.907,3.271,3.271,0,0,1,1.1.179v.588a3.035,3.035,0,0,0-1.1-.2,1.186,1.186,0,0,0-1.28,1.335,1.171,1.171,0,0,0,1.221,1.329,3,3,0,0,0,.689-.081v-.813h-.8v-.552Z" transform="translate(-148.015 -57.842)" fill="#47484a"/>
    <path id="Path_74" data-name="Path 74" d="M269.9,97.056v.552H267.4v-3.58h2.474v.552h-1.791v.941h1.613v.552h-1.613v.982Z" transform="translate(-159.643 -58.006)" fill="#47484a"/>
    <path id="Path_75" data-name="Path 75" d="M280.2,97.608l-.925-1.345-.914,1.345h-.78l1.291-1.8-1.286-1.78h.823l.9,1.325.92-1.325h.78L279.722,95.8l1.3,1.811Z" transform="translate(-165.724 -58.006)" fill="#47484a"/>
    <path id="Path_76" data-name="Path 76" d="M289.688,95.705a1.807,1.807,0,0,1,1.953-1.943,2.436,2.436,0,0,1,.951.159V94.5a2.111,2.111,0,0,0-.9-.18,1.21,1.21,0,0,0-1.307,1.371,1.158,1.158,0,0,0,1.254,1.283,2.05,2.05,0,0,0,.978-.225v.578a2.445,2.445,0,0,1-1.043.215,1.7,1.7,0,0,1-1.888-1.841" transform="translate(-172.953 -57.842)" fill="#47484a"/>
    <path id="Path_77" data-name="Path 77" d="M304.343,97.056v.552h-2.506v-3.58h2.474v.552H302.52v.941h1.614v.552H302.52v.982Z" transform="translate(-180.206 -58.006)" fill="#47484a"/>
    <path id="Path_78" data-name="Path 78" d="M315.546,97.03v.578h-2.485v-3.58h.683v3Z" transform="translate(-186.907 -58.006)" fill="#47484a"/>
    <path id="Path_79" data-name="Path 79" d="M326.292,97.03v.578h-2.485v-3.58h.683v3Z" transform="translate(-193.323 -58.006)" fill="#47484a"/>
    <path id="Path_80" data-name="Path 80" d="M337.058,97.056v.552h-2.506v-3.58h2.474v.552h-1.791v.941h1.613v.552h-1.613v.982Z" transform="translate(-199.738 -58.006)" fill="#47484a"/>
    <path id="Path_81" data-name="Path 81" d="M348.91,94.028v3.58H348.3l-1.882-2.537c0,.117,0,.235,0,.352v2.184h-.645v-3.58h.607l1.884,2.548c-.006-.128-.006-.251-.006-.374V94.028Z" transform="translate(-206.441 -58.006)" fill="#47484a"/>
    <path id="Path_82" data-name="Path 82" d="M358.525,95.705a1.807,1.807,0,0,1,1.953-1.943,2.436,2.436,0,0,1,.951.159V94.5a2.111,2.111,0,0,0-.9-.18,1.21,1.21,0,0,0-1.307,1.371,1.158,1.158,0,0,0,1.254,1.283,2.05,2.05,0,0,0,.978-.225v.578a2.444,2.444,0,0,1-1.043.215,1.7,1.7,0,0,1-1.888-1.841" transform="translate(-214.051 -57.842)" fill="#47484a"/>
    <path id="Path_83" data-name="Path 83" d="M373.18,97.056v.552h-2.506v-3.58h2.474v.552h-1.791v.941h1.613v.552h-1.613v.982Z" transform="translate(-221.304 -58.006)" fill="#47484a"/>
  </g>
</svg>
