<svg xmlns="http://www.w3.org/2000/svg" xmlns:xlink="http://www.w3.org/1999/xlink" width="90" height="33" viewBox="0 0 90 33">
  <defs>
    <clipPath id="clip-path">
      <rect id="Rectangle_79" data-name="Rectangle 79" width="90" height="33" transform="translate(0.336 -0.151)" fill="none"/>
    </clipPath>
  </defs>
  <g id="Group_81" data-name="Group 81" transform="translate(-0.336 0.151)">
    <g id="Group_80" data-name="Group 80" transform="translate(0 0)" clip-path="url(#clip-path)">
      <path id="Path_45" data-name="Path 45" d="M100.135,41.976a.108.108,0,0,0,.073.043.117.117,0,0,1,.073.041.231.231,0,0,1,.083.1l.021.021c0,.014.007.022.02.022.07.027.136.055.2.081a2.059,2.059,0,0,1,.2.105l.042.02a5.238,5.238,0,0,1,.551-.01,1.259,1.259,0,0,0,.572-.136.836.836,0,0,0,.416-.333,3.218,3.218,0,0,0,.271-.541,1.31,1.31,0,0,0,.114-.5c.007-.179.011-.367.011-.561v-.456a4.016,4.016,0,0,0-.021-.417c0-.027.008-.114.021-.259a.957.957,0,0,1,.062-.3q.144-.374.416-.406c.181-.02.3-.031.374-.031a.658.658,0,0,1,.27.073.329.329,0,0,1,.125.136c.027,0,.042.027.042.083a1.122,1.122,0,0,0,.093.26.728.728,0,0,1,.073.259,3.276,3.276,0,0,1,0,.51c-.014.159-.02.315-.02.468v.125a1.075,1.075,0,0,0-.042.312,1.182,1.182,0,0,1-.043.313.574.574,0,0,1-.01.081.615.615,0,0,0-.01.083,2.447,2.447,0,0,1-.156.842,2.769,2.769,0,0,1-.323.655,2.8,2.8,0,0,1-.457.5,2.892,2.892,0,0,1-.562.332,1.449,1.449,0,0,1-.28.126c-.091.027-.191.055-.3.082a3.4,3.4,0,0,1-.832.1,4.441,4.441,0,0,1-.769-.063.42.42,0,0,1-.188-.042,2.594,2.594,0,0,0-.281-.1c-.09-.028-.2-.063-.322-.1h-.02a.565.565,0,0,0-.062-.1c-.029,0-.036.014-.022.042s.007.035-.021.021a.571.571,0,0,1-.145-.1.514.514,0,0,0-.167-.106.061.061,0,0,0-.041-.02.542.542,0,0,1-.114-.1c-.034-.042-.079-.09-.135-.146a2.164,2.164,0,0,1-.457-.811,4.232,4.232,0,0,1-.208-1q-.062-.79-.052-1.705T98.2,37.4c0-.276,0-.655.01-1.134s0-.932-.032-1.361a.271.271,0,0,0-.2-.228,2.421,2.421,0,0,1-.26-.083h-.083a1.728,1.728,0,0,0-.281.02l-.218.042h-.083a.824.824,0,0,1-.541-.249.787.787,0,0,1-.207-.479.923.923,0,0,1,.165-.49.645.645,0,0,1,.541-.279h.874c.236-.013.34-.173.312-.478V31.288c0-.236,0-.42-.011-.551a1.447,1.447,0,0,1,.032-.385.62.62,0,0,1,.519-.5.482.482,0,0,1,.218-.042.646.646,0,0,1,.2.02.234.234,0,0,1,.125.083.239.239,0,0,0,.125.083l.041.042a.536.536,0,0,0,.125.208.526.526,0,0,1,.125.248.164.164,0,0,0,.022.083.182.182,0,0,1,.021.084c.027.151.02.245-.021.279s-.035.1.021.2a.175.175,0,0,0,.009.052.192.192,0,0,1,.011.053,1.535,1.535,0,0,1,.01.3c-.007.09-.01.19-.01.3v.281c0,.117,0,.238.01.363s.011.233.011.323v.155q.06.188.374.188h2.328a.645.645,0,0,1,.52.167.8.8,0,0,1,.208.541.656.656,0,0,1-.208.592.943.943,0,0,1-.52.2h-2.433c-.18,0-.27.139-.27.416-.029.443-.039.852-.033,1.226s0,.769-.03,1.186a.354.354,0,0,0,.011.1.372.372,0,0,0,.03.083v2.413a4.117,4.117,0,0,0,.052.916,3.168,3.168,0,0,0,.24.727v.041a.057.057,0,0,0,.021.042.169.169,0,0,0,.02.1c0,.042.014.062.043.062M96.6,33.867c0-.043-.008-.063-.021-.063,0,.041.007.063.021.063m.187-.334v-.062a.034.034,0,0,1-.021.031c-.014.008-.007.018.021.031m0,.707c0,.056.007.062.02.02s.006-.048-.02-.02m.125-.145c.055.055.076.059.062.01s-.035-.051-.062-.01m.1-.52c.027.014.042,0,.042-.032s-.006-.045-.021-.031-.035.048-.021.063m.042-.125a.052.052,0,0,0,.053-.031.4.4,0,0,1,.031-.073.063.063,0,0,1-.022-.043c0-.013-.013-.02-.041-.02q.042.063,0,.093a.055.055,0,0,0-.021.074m.208.748v-.061a.035.035,0,0,1-.021.031c-.014.007-.007.017.021.03m.083.042c0-.028.014-.035.042-.02a.183.183,0,0,1,.031-.23.156.156,0,0,0,.031-.207c.055-.028.07-.063.042-.1a.323.323,0,0,0-.125.26c-.013.131-.02.232-.02.3m.188-.644c-.042.013-.053.028-.032.042s.032,0,.032-.042m0,.6c-.029.029-.029.042,0,.042s.028-.012,0-.042m0-.811.083.042a.045.045,0,0,1,.01-.063.069.069,0,0,0,.031-.062.308.308,0,0,1-.083-.062.216.216,0,0,1-.01.083l-.031.062m.1.416-.02-.02c-.029.014-.035.028-.021.041s.027.007.041-.021m.083-.416c-.027,0-.041-.011-.041-.031s-.007-.016-.021.009c.014,0,.024.011.031.033s.016.017.031-.011m.977-.228c-.013.056-.006.069.021.042s.021-.042-.021-.042m.126,1.207c-.028.013-.043.013-.043,0s-.013-.022-.041-.022c-.014.042-.008.059.02.053a.154.154,0,0,0,.063-.031M98.8,30.083c0-.042-.007-.062-.022-.062,0,.04.007.062.022.062m.083.083c.041,0,.062-.028.062-.083h-.062Zm0,6.466c.069,0,.1-.007.1-.02-.028-.014-.035-.032-.021-.052a.132.132,0,0,0,.021-.073c-.014,0-.021,0-.021-.011s-.007-.01-.02-.01c.026.041.026.069,0,.083a.136.136,0,0,0-.062.083m.1,6.176a.057.057,0,0,0-.021-.053.14.14,0,0,1-.041-.031c0,.056.021.083.062.083m.062-9.524c0-.027,0-.045.011-.053a.084.084,0,0,0,.01-.051h-.083c0,.07.021.1.062.1m-.062,3.057h.041c0-.042-.013-.062-.041-.062Zm.125-6.156a.074.074,0,0,0-.083-.083.074.074,0,0,0,.083.083m-.041,5.886h.041c-.027-.027-.041-.027-.041,0m.041-.167c.014-.041.028-.045.041-.011s.035.039.063.011a.1.1,0,0,0-.031-.083c-.021-.013-.045-.028-.073-.042a.113.113,0,0,1-.02.052c-.014.02-.007.046.02.073m.021-2.12c0,.069.014.114.041.134a1.039,1.039,0,0,1,.083.073.159.159,0,0,1,.053-.062.069.069,0,0,0,.031-.061c-.041.014-.076,0-.1-.053s-.062-.059-.1-.031m.124-3.576h-.083c0,.055.013.072.042.052a.057.057,0,0,1,.083.01c.013.028.006.038-.022.031s-.035,0-.02.031.048.028.062,0a.135.135,0,0,1,.063-.062c-.041,0-.049-.028-.02-.084H99.3c0-.014.013-.034.041-.061a.048.048,0,0,1-.052-.031c-.008-.022-.024-.024-.052-.01s-.01.031.01.052a.058.058,0,0,1,.01.073M99.2,31.891c.028.029.053.051.073.073l.073.073a.223.223,0,0,1-.041-.177.214.214,0,0,0-.022-.155.16.16,0,0,1-.051.084c-.021.014-.032.048-.032.1m.022,4.845a.475.475,0,0,1-.011.094.061.061,0,0,0,.031.074.178.178,0,0,0,.073-.094.1.1,0,0,0-.01-.114.059.059,0,0,1-.083.04m.062-2.453a.109.109,0,0,0,.022-.114.146.146,0,0,0-.063-.094.319.319,0,0,1,.01.135.058.058,0,0,0,.031.073m.022,1.124a.142.142,0,0,1,.01-.063c.006-.013,0-.022-.032-.022,0,.056.006.085.022.085m.02-2.08c.042-.014.063-.011.063.01s.014.031.041.031a.068.068,0,0,0-.041-.062.041.041,0,0,0-.063.022m0,.478c.014,0,.021.021.021.063a.272.272,0,0,0,.072-.053c.021-.021.018-.046-.01-.073.014.043,0,.056-.031.043s-.052-.008-.052.02m.083-2.952c0-.028-.007-.045-.021-.053a.1.1,0,0,1-.041-.052.171.171,0,0,0,.062.1m.02,2.057a.167.167,0,0,1-.02-.073.071.071,0,0,0-.021-.051.248.248,0,0,1-.01.072c-.007.022.01.039.051.051m.021,10.44a.119.119,0,0,0-.041-.084c-.028.028-.035.053-.021.073a.043.043,0,0,0,.062.011M99.407,31.6c0-.027,0-.038.01-.031s.018,0,.031-.01c-.027,0-.041,0-.041-.01s-.007-.011-.021-.011a.079.079,0,0,0,.021.063m.02-1.248.021.022.02-.022c.029-.055.014-.069-.041-.042l-.02.021Zm0,4.513c.028,0,.038-.01.032-.032a.048.048,0,0,1,.01-.051c-.027,0-.041.028-.041.083m.1-1.747a.148.148,0,0,1-.021.124c.028.028.049.028.062,0s.042-.034.083-.02a.11.11,0,0,1,0-.094c.014-.035.007-.059-.021-.072-.013.027-.028.041-.041.041a.152.152,0,0,0-.063.021m-.021,10c.013.028.021.024.021-.009s-.008-.033-.021.009m.021-8.525c.013.028.024.028.032,0s0-.028-.032,0m.022-.063a.085.085,0,0,0,.062-.02.258.258,0,0,1,.063-.041c-.014-.07-.014-.11,0-.126s.013-.047,0-.1a.935.935,0,0,1-.094.115.193.193,0,0,0-.031.176m.041-1.788c-.028,0-.041.007-.041.02.027,0,.041-.006.041-.02m-.041.728h.062c0-.055-.02-.075-.062-.062Zm0,.208c.027.028.037.028.031,0s-.018-.026-.031,0m.02-.666a.129.129,0,0,1,.083.021c-.014-.027-.01-.043.01-.052s.018-.017-.01-.031c-.014.028-.028.031-.041.01s-.028-.031-.042-.031Zm.063-.394a.033.033,0,0,0-.02-.031c-.014-.008-.02,0-.02.031.013-.014.02-.014.02,0s.007.013.02,0m.021.728q0-.022.022,0a.038.038,0,0,0-.043-.043c0,.028.007.043.021.043m0,10.1c.028,0,.045-.007.053-.021a.11.11,0,0,1,.051-.042c-.026,0-.041,0-.041-.01s-.016-.011-.041-.011a.119.119,0,0,1-.022.084m.022-9.254h.062a.064.064,0,0,1,0-.072c.013-.021,0-.039-.043-.053a.17.17,0,0,1-.01.063.149.149,0,0,0-.01.061m.144-.936c.057,0,.084-.006.084-.02-.055,0-.084.008-.084.02m.188,1.268c.014.028.024.028.031,0s0-.027-.031,0m.311,9.046a.12.12,0,0,1,.073.021.068.068,0,0,0,.073,0,.167.167,0,0,0,.032-.135.5.5,0,0,0-.032-.136c0,.071-.025.113-.073.126s-.073.055-.073.125m.583.021a.094.094,0,0,0,.01.094c.022.034.045.037.073.01-.028-.055-.018-.072.031-.051a.085.085,0,0,0,.114-.031c-.027,0-.038-.007-.031-.021s0-.021-.01-.021a.48.48,0,0,0-.094.01.478.478,0,0,1-.094.011m.187-9.67c-.014.07.013.1.083.1-.014-.027.014-.041.083-.041a.188.188,0,0,1-.051-.073.1.1,0,0,0-.053-.051c.014.04-.007.061-.062.061m.041-.187c-.013.043,0,.062.032.062s.044-.02.031-.062c-.027.014-.042.014-.042,0s-.007-.014-.021,0m.042-.208c.07.014.1.049.1.1a.1.1,0,0,0,.083.1c.055-.055.055-.1,0-.134a.674.674,0,0,1-.125-.094.142.142,0,0,1,.011-.053c.007-.022,0-.024-.032-.01.014.028.01.041-.01.041s-.032.014-.032.042m.416,1c.042-.042.035-.062-.021-.062,0,.041.007.062.021.062m0,8.485c.028-.028.02-.056-.021-.082,0,.054.007.082.021.082m.02.582.084.042a.164.164,0,0,1,.032-.073c.02-.035.01-.059-.032-.073.013.042.007.063-.021.063a.067.067,0,0,0-.063.042m.167-.375a.122.122,0,0,0-.021-.083c0,.042-.02.056-.062.042s-.062-.013-.062,0a.2.2,0,0,0,.146.042m.082-.207c.043,0,.063-.014.063-.042h-.041c0,.014,0,.021-.011.021s-.01.007-.01.021m.1-9.13c.028,0,.041-.006.041-.02s.014-.014.042,0a.082.082,0,0,0-.042-.083c0,.028-.007.044-.021.051s-.02.025-.02.051m.25.438a.9.9,0,0,0,.042-.1.094.094,0,0,0-.021-.1c-.014.027-.031.063-.051.1a.073.073,0,0,0,.03.1m.229,8.275c.013,0,.024-.014.031-.041s0-.042-.031-.042c.013.028.01.047-.011.062s-.018.02.011.02m.187-.374a.092.092,0,0,1,0,.083.04.04,0,0,0,.02.062c.013-.027.024-.031.032-.01s.024.025.051.01a.157.157,0,0,1,0-.156c.028-.049-.007-.045-.1.011m.082.582a.244.244,0,0,0,.1-.032c.042-.021.049-.045.02-.071q-.041.061-.083.03a.207.207,0,0,1-.061-.073q-.022.042,0,.063a.124.124,0,0,1,.02.083m.021-1.186a.225.225,0,0,0,.114.115.274.274,0,0,1,.114.094c-.055.112-.035.181.063.207a.5.5,0,0,1,.27-.01.579.579,0,0,0,.291-.009.173.173,0,0,1-.052-.094.37.37,0,0,0-.053-.115,1.684,1.684,0,0,1-.343.011c-.132-.007-.184-.065-.156-.177-.07.014-.1,0-.1-.053s-.029-.073-.083-.073c0,.029-.01.045-.031.053a.049.049,0,0,0-.031.051m.124-1.871c.013,0,.035.014.062.042a.17.17,0,0,0,.021-.1c-.056.028-.083.048-.083.062M103,41.54c.014-.028,0-.045-.031-.052s-.045,0-.031.031c.013,0,.02,0,.02.012s.014.009.042.009m.124.228c.056,0,.083-.012.083-.041-.028-.042-.055-.028-.083.041" transform="translate(-57.655 -17.847)" fill="#fff"/>
      <path id="Path_46" data-name="Path 46" d="M122.337,34.033c-.028.027-.02.049.021.062s.063.035.063.063c0,.14,0,.319-.01.541s-.014.454-.021.7-.01.479-.01.708v.592q-.021,1.06-.021,2.111t.021,1.986a1.962,1.962,0,0,0,.01.458c.021.153.045.291.072.416a.068.068,0,0,1,0,.072.421.421,0,0,0-.041.095l.021.019a.019.019,0,0,0,.02.022.506.506,0,0,1,.125.083,1.665,1.665,0,0,1,.114.125.557.557,0,0,0,.115.1l.042.021a.582.582,0,0,0,.332-.052,1.449,1.449,0,0,1,.4-.114.08.08,0,0,1,.083.052.122.122,0,0,0,.063.071.051.051,0,0,0,0-.082c-.029-.028-.021-.049.02-.061a1.357,1.357,0,0,1,.406.061.572.572,0,0,1,.3.208.761.761,0,0,1,.1.541.918.918,0,0,1-.177.311.732.732,0,0,1-.53.25.052.052,0,0,1-.083,0c-.306-.056-.6-.1-.875-.125s-.554-.055-.831-.083c-.028,0-.045.007-.052.021s-.025.021-.051.021a2.266,2.266,0,0,0-.582-.01c-.237.021-.437.039-.6.052-.125.014-.246.024-.362.031a3.312,3.312,0,0,0-.406.053c-.153.027-.326.047-.52.063a1.553,1.553,0,0,1-.521-.043.546.546,0,0,1-.364-.239.759.759,0,0,1-.092-.531.5.5,0,0,1,.092-.322.6.6,0,0,1,.209-.167.712.712,0,0,1,.228-.061c.077-.006.136-.01.177-.01q.166,0,.385.02c.145.015.294.035.447.063a.49.49,0,0,0,.4-.083.876.876,0,0,0,.249-.521,2.659,2.659,0,0,0,.114-.727c.007-.264,0-.52-.01-.769V35.437a2.275,2.275,0,0,0-.021-.323c-.042-.207-.079-.371-.114-.488a1.13,1.13,0,0,0-.2-.365.511.511,0,0,0-.395-.082c-.195.013-.361.027-.5.041h-.043a.667.667,0,0,1-.3.063,1.145,1.145,0,0,1-.323-.041c-.028-.056-.021-.084.022-.084a.107.107,0,0,1-.1.022.724.724,0,0,0-.1-.042.05.05,0,0,1-.032-.01.041.041,0,0,0-.031-.011.921.921,0,0,1-.115-.219.834.834,0,0,1-.052-.3,1.05,1.05,0,0,1,.062-.281.61.61,0,0,1,.125-.177.019.019,0,0,0,.022-.021l.25-.124.041-.021a1.938,1.938,0,0,1,.634-.063c.216.014.378.028.489.042a2.732,2.732,0,0,0,.333.062,2.977,2.977,0,0,0,.373.021c.181-.014.357-.031.531-.051s.322-.046.447-.074a.61.61,0,0,1,.385.094.9.9,0,0,1,.218.3c.014.084.028.187.043.312a1.453,1.453,0,0,1-.021.416c0,.014-.01.027-.031.041s-.032.007-.032-.02Zm-3.513,8.838c.027,0,.038-.01.031-.031a.094.094,0,0,1,.01-.073c-.027.014-.041.012-.041-.012s-.014-.015-.042.012c.055,0,.069.035.042.1m.062.186c.028,0,.043-.006.043-.019a.059.059,0,0,1,.02-.043h-.063Zm.292-.477c-.028-.041-.05-.055-.063-.041s.007.028.063.041m.082.541a.171.171,0,0,0,.1-.02.052.052,0,0,0-.063-.032.051.051,0,0,0-.041.053m.062-.5c.029.027.043.027.043,0s-.014-.028-.043,0m.126.144c0-.014,0-.019.01-.019s.01-.008.01-.022-.02,0-.02-.011-.008-.01-.021-.01c-.029.042-.021.061.021.061m.208,0c0,.014.006.014.021,0s0-.019.01-.019.01-.008.01-.022h-.041Zm.124-.207a.174.174,0,0,1-.021-.072c0-.022-.014-.039-.041-.053a.082.082,0,0,0-.022.094.059.059,0,0,0,.083.031m-.021.083c.014.029.024.025.032-.009s0-.032-.032.009M121.277,29.5a1.1,1.1,0,0,1,.624.167,1.482,1.482,0,0,1,.416.416.9.9,0,0,1,.082.3,3.309,3.309,0,0,1,.022.384.333.333,0,0,1-.01.063.309.309,0,0,0-.012.062c-.027.07-.048.124-.062.167s-.034.1-.063.166a.149.149,0,0,0-.031.062.121.121,0,0,1-.031.063,1.132,1.132,0,0,1-.726.437,1.19,1.19,0,0,1-.417.01,1.023,1.023,0,0,1-.52-.259,1.31,1.31,0,0,1-.312-.385,1.669,1.669,0,0,1-.124-.468,1.141,1.141,0,0,1,.094-.49,1.407,1.407,0,0,1,.281-.384,1.625,1.625,0,0,1,.332-.218,1.01,1.01,0,0,1,.458-.094m-.749,12.58a.129.129,0,0,1-.031.082.143.143,0,0,0-.031.085.2.2,0,0,0,.144.062.238.238,0,0,0,.041-.136.155.155,0,0,0-.041-.114c0,.029-.01.035-.03.021s-.039-.013-.052,0m-.02.667c.027-.015.041-.008.041.019s.007.043.022.043a.066.066,0,0,1,.062-.073c.041-.007.062-.039.062-.094a.167.167,0,0,1-.094.051.187.187,0,0,0-.093.054m0,.373a.133.133,0,0,1,.082.062.083.083,0,0,0,.083.042.074.074,0,0,0,.083-.083c-.069-.028-.146-.055-.228-.084a.044.044,0,0,1-.01.032.042.042,0,0,0-.01.031m.291-1.1c0-.028-.017-.046-.053-.053s-.051,0-.051.01a.06.06,0,0,1,.041.021.086.086,0,0,0,.063.022m.02.747c.028-.027.032-.048.01-.061a.158.158,0,0,1-.052-.063c-.042.042-.028.084.042.125m-.062-.934c0,.069.008.079.02.03s.007-.058-.02-.03m.042.6c.029-.027.053-.027.073,0s.037.028.051,0c-.028,0-.031-.01-.01-.031a.057.057,0,0,0,.01-.073.758.758,0,0,1-.1.042c-.042.013-.048.035-.02.062m.043-9.295c0-.042-.014-.062-.043-.062a.033.033,0,0,1,.01.041c-.007.014,0,.021.032.021m.062,8.277a.027.027,0,0,1,0-.043c.013-.013.006-.02-.021-.02,0,.042.007.063.021.063m.041.894c-.015-.042-.01-.07.01-.084s.018-.035-.01-.063a.056.056,0,0,0-.062.063.082.082,0,0,0,.062.084m.062.312c-.041-.042-.062-.035-.062.02-.028.029-.021.035.021.022s.056-.028.041-.041m.021.249a.086.086,0,0,1,.011-.053.04.04,0,0,0,.01-.031.061.061,0,0,0-.042-.021c-.027,0-.041.007-.041.021.027,0,.038.01.032.031s0,.039.03.053m-.041-4.138c.082,0,.124-.027.124-.083-.083-.014-.124.014-.124.083m.041,4.2h.042c0-.028-.014-.028-.042,0m.1-1.019a.072.072,0,0,1,.053-.02c.02,0,.024.02.01.062.083.028.125-.006.125-.1-.069.029-.108.025-.115-.01a.183.183,0,0,0-.051-.094.173.173,0,0,1-.01.125c-.021.055-.025.069-.011.041m0-2.329.083.041c0-.055.024-.069.073-.041s.079.014.094-.041c-.042.014-.063.006-.063-.021a.192.192,0,0,0-.02-.083c-.055,0-.09.018-.1.053a.258.258,0,0,1-.063.093m.063-6.113c0-.029.014-.042.043-.042a.037.037,0,0,0,.041-.041.067.067,0,0,0-.083.02c-.028.028-.028.048,0,.063m.1.228a.519.519,0,0,0,.167-.063.072.072,0,0,0-.094-.01.189.189,0,0,0-.072.073m.1,1.706a.141.141,0,0,0,.125-.062.143.143,0,0,0-.1-.041.165.165,0,0,1-.021.1m.084.374v-.042c-.014,0-.021,0-.021-.01s-.008-.01-.021-.01c0,.041.014.063.043.063m-.043,5.551c.028,0,.045,0,.052.012a.248.248,0,0,0,.052.029.206.206,0,0,1-.02-.093.078.078,0,0,0-.041-.073c.013.043.009.066-.011.073a.048.048,0,0,0-.032.051m.021-5.031a.1.1,0,0,1,.093.052.178.178,0,0,0,.093.073.3.3,0,0,0,.1-.167.273.273,0,0,0-.113-.063.427.427,0,0,1-.136-.061.133.133,0,0,1-.02.073.166.166,0,0,0-.021.094m.021,3.68c.026.014.041.028.041.042s.014.02.041.02a.167.167,0,0,0,0-.114.171.171,0,0,1-.021-.092c-.041,0-.061.006-.061.02.026.014.033.031.02.053a.123.123,0,0,0-.02.072m.02-6.363c.028,0,.041,0,.041.01s.015.01.042.01a.066.066,0,0,1-.021-.051c0-.021-.013-.031-.041-.031a.09.09,0,0,1-.021.062m0,5.927a.519.519,0,0,1,.157.031.129.129,0,0,1,.092.135.129.129,0,0,0,.1-.083.058.058,0,0,1-.031-.072.059.059,0,0,0-.031-.073.259.259,0,0,1-.187-.062.155.155,0,0,1-.052.062.143.143,0,0,0-.052.063m.062-3.618a.124.124,0,0,1-.01-.083c.006-.028,0-.035-.031-.02a.058.058,0,0,0-.011.062.049.049,0,0,0,.052.042m-.041,6.841c.028.029.048.043.063.043v-.062a.086.086,0,0,0-.063.019m.1-9.357c0-.028.007-.042.021-.042s.014-.013,0-.041c-.041,0-.061-.007-.061-.021,0,.084.013.118.041.1m-.02,2.371a.069.069,0,0,1,.063.031c.013.02.041.024.082.01a.2.2,0,0,1-.021-.094.2.2,0,0,0-.02-.093.132.132,0,0,1-.063.062.084.084,0,0,0-.041.083m.167,3.077c0-.055-.014-.077-.043-.063,0,.041.014.063.043.063m.041-2.87c-.014,0-.02-.01-.02-.031s-.014-.024-.043-.01a.07.07,0,0,0,.032.062c.021.015.031.007.031-.021m.125,2.932c-.028.015-.045.008-.053-.02s-.016-.027-.031,0c.014,0,.028.01.042.032s.028.017.041-.012m.042,3.722c.013,0,.02.008.02.022s.007.02.022.02a.259.259,0,0,1,.124-.062.185.185,0,0,1,.125,0,.6.6,0,0,1,.021-.157c.013-.048-.007-.08-.062-.093a.285.285,0,0,1-.114.146.444.444,0,0,0-.135.123m.249.084a.137.137,0,0,0,.094.01c.034-.007.059,0,.072.011,0,.11-.041.166-.125.166a.089.089,0,0,0-.071-.01c-.022.007-.039,0-.054-.031a.061.061,0,0,1,.011-.073c.021-.02.017-.038-.011-.051-.013.026-.055.026-.124,0a.164.164,0,0,0,.062.134c.043.036.043.088,0,.157a.289.289,0,0,0,.053.073c.02.02.045.017.072-.011-.041-.043-.063-.069-.063-.083a.254.254,0,0,1,.209-.073.147.147,0,0,0,.167-.093c-.014-.028-.032-.042-.053-.042s-.031-.014-.031-.043a.148.148,0,0,1,.083-.166c-.07.014-.128.028-.178.041a.2.2,0,0,0-.114.084m-.188-11.541c.042,0,.063-.006.063-.02a.091.091,0,0,0-.063.02m.022,4.138c0-.014.007-.02.02-.02v-.022h-.042c.029.028.036.041.022.041m0-1.5c.055.028.082.013.082-.042-.055,0-.082.014-.082.042m.042,5.406c.028-.055.028-.083,0-.083a.063.063,0,0,1-.021.043c-.013.013-.006.026.021.041m-.021,2.808c.083-.014.122,0,.116.052a.107.107,0,0,0,.051.114.09.09,0,0,1,.02-.063.079.079,0,0,0,.021-.062.115.115,0,0,0-.092-.061.116.116,0,0,1-.094-.063.121.121,0,0,0-.021.084m.1-8.256a.12.12,0,0,1,.082.02v-.062a.121.121,0,0,0-.082.042m.166,8.422a.048.048,0,0,0-.052.031c-.008.021-.024.025-.052.012.014.068.045.086.093.051a.277.277,0,0,0,.094-.093.17.17,0,0,1-.052-.094.408.408,0,0,0-.032-.092.286.286,0,0,1-.011.092.173.173,0,0,0,.011.094m.083.894c0-.028.01-.043.031-.043s.032-.013.032-.041q-.043-.019-.063,0c-.014.014-.035.007-.062-.021.027.07.048.1.062.1m.125.041c-.014,0-.021,0-.021-.01s-.015-.011-.041-.011c-.015.028-.008.045.021.051s.041,0,.041-.031m.1-.935c.028,0,.035.01.02.031s-.035.025-.061.012c0,.028.007.041.02.041s.014.014,0,.042c.055-.014.086-.01.093.009a.216.216,0,0,0,.052.073.11.11,0,0,0,.021-.115.259.259,0,0,0-.063-.114c.014.029,0,.032-.032.011s-.051-.017-.051.01m.25.374c-.014-.013-.022-.049-.022-.1a.3.3,0,0,1-.093-.011c-.022-.006-.045,0-.073.032s0,.065.031.073a.485.485,0,0,1,.095.031c-.028.028-.021.056.02.083a.46.46,0,0,0,.2-.042c.062-.027.074-.089.031-.187a.068.068,0,0,0,.063-.042.194.194,0,0,0-.136.073.262.262,0,0,1-.114.093m.041.333.188.062c-.015-.028-.028-.055-.043-.083a.068.068,0,0,1,.02-.083.264.264,0,0,0-.073.052.251.251,0,0,1-.093.052m.062.207c.041.014.058.007.052-.02a.4.4,0,0,0-.031-.083c-.016.014-.021.049-.021.1m.581-.415c-.041,0-.062-.014-.062-.042a.036.036,0,0,0-.041-.041c.026.083-.007.122-.1.114a.164.164,0,0,0-.187.094c.054.014.091,0,.1-.032s.047-.045.1-.031a.113.113,0,0,0,.084.114.109.109,0,0,0,.124-.01.343.343,0,0,1-.063-.084c.029-.014.039-.027.032-.04s0-.022.031-.022a.093.093,0,0,0,.125.029c.056-.019.09.005.1.075,0-.014.013-.035.041-.063a.485.485,0,0,0-.146-.228c-.028.111-.076.167-.146.167m.4.395a.341.341,0,0,1,.188.1.089.089,0,0,0-.063-.114A.11.11,0,0,0,124,43.1" transform="translate(-70.934 -17.66)" fill="#fff"/>
      <path id="Path_47" data-name="Path 47" d="M137.991,46.755c.013-.027,0-.038-.052-.031s-.059-.011-.031-.053c.346.042.568-.137.664-.54a3.688,3.688,0,0,0,.073-.384,2.582,2.582,0,0,0,.011-.53V41.182q0-.478.02-.926a3.766,3.766,0,0,0-.082-.946c-.028-.069-.056-.141-.083-.219a.381.381,0,0,0-.125-.176.821.821,0,0,0-.321-.125,1.8,1.8,0,0,0-.323-.01c-.112.007-.228.018-.353.032a1.24,1.24,0,0,1-.4-.021,1.331,1.331,0,0,1-.415-.145c-.125-.069-.2-.229-.209-.479a.543.543,0,0,1,.146-.509,1.094,1.094,0,0,1,.436-.218,1.208,1.208,0,0,1,.373-.02c.1.014.264.034.5.062.1.014.191.032.281.053a.559.559,0,0,0,.281-.011c.027,0,.042,0,.042.011s.007.01.022.01l.416-.052.415-.053c.346-.055.568.028.665.251a.534.534,0,0,1,.084.259v.343c-.014.028-.039.035-.073.02s-.053-.007-.053.02a.332.332,0,0,1,.126.041V38.5c.027.014.055,0,.083-.031s.056-.039.083-.01a.044.044,0,0,1-.01.062c-.022.014-.025.042-.011.083.027.015.052,0,.073-.031a.069.069,0,0,0-.01-.093c.028-.013.063,0,.1.041.014-.054.014-.073,0-.052s-.034.016-.062-.01a.408.408,0,0,0,.083-.125.822.822,0,0,1,.042-.146c.028-.026.045-.034.053-.021s.031.015.073,0c.014-.027.01-.038-.011-.031s-.024-.009-.01-.052a.044.044,0,0,1,.031.01.041.041,0,0,0,.031.011q-.041-.082.082-.145a1.77,1.77,0,0,0,.189-.1,3.418,3.418,0,0,1,1.07-.561,6.682,6.682,0,0,1,.8-.187,4.545,4.545,0,0,1,1.227,0,4.194,4.194,0,0,1,1.29.4c.138.068.287.152.447.25a2.147,2.147,0,0,1,.405.311,1.275,1.275,0,0,0,.134.124.174.174,0,0,1,.053.062.055.055,0,0,0,.063.063.833.833,0,0,1,.207.25c0,.014.007.021.021.021l.022.02a.093.093,0,0,1,.02.063.037.037,0,0,0,.042.042l.021.019a1.216,1.216,0,0,0,.126.26,1.453,1.453,0,0,1,.124.26.118.118,0,0,1,.022.083.253.253,0,0,0,.031.135.512.512,0,0,1,.051.115,5.764,5.764,0,0,1,.147,1.32c0,.464-.007.94-.02,1.424v2.724c0,.195,0,.378.01.552a3.557,3.557,0,0,0,.052.488,1.167,1.167,0,0,0,.073.228.582.582,0,0,0,.114.187.4.4,0,0,0,.261.146,1.674,1.674,0,0,0,.446-.021.038.038,0,0,1,.042.042.435.435,0,0,1-.156.188c-.076.055-.073.124.01.208.042-.014.052-.039.031-.073a.126.126,0,0,1-.01-.114.142.142,0,0,0,.062-.052c.015-.02.035-.017.063.011-.028-.138.02-.212.144-.218a1.564,1.564,0,0,0,.334-.052.087.087,0,0,0,.041-.011.1.1,0,0,1,.043-.009.606.606,0,0,1,.416.176.766.766,0,0,1,.187.3.69.69,0,0,1-.083.541,1.293,1.293,0,0,1-.3.259,1.207,1.207,0,0,1-.51.116,3.209,3.209,0,0,1-.6-.053,4.715,4.715,0,0,0-.623-.071,6.37,6.37,0,0,0-.77-.043c-.278,0-.535.008-.769.021-.154,0-.336.011-.551.031a2.263,2.263,0,0,0-.446.073c-.1.014-.189.024-.272.031a.393.393,0,0,1-.208-.031,1.709,1.709,0,0,1-.5-.187l-.022-.02a.085.085,0,0,0-.051-.051.05.05,0,0,1-.031-.054v-.019a.11.11,0,0,1-.093-.135.28.28,0,0,0-.031-.177.055.055,0,0,1-.02-.042c0-.263.058-.433.176-.51a.934.934,0,0,1,.447-.134,1.352,1.352,0,0,1,.634.061.718.718,0,0,0,.51.021.541.541,0,0,0,.25-.29,1.477,1.477,0,0,0,.124-.511c.016-.186.022-.39.022-.613a.061.061,0,0,1,.02-.041.052.052,0,0,0,.02-.041.364.364,0,0,0,0-.177.591.591,0,0,1-.02-.156,1.322,1.322,0,0,0,.02-.239.768.768,0,0,0-.041-.24V41.577c0-.264,0-.506-.01-.729a2.537,2.537,0,0,0-.052-.5,3.908,3.908,0,0,0-.073-.385,2.21,2.21,0,0,0-.115-.3.062.062,0,0,1-.019-.041v-.042a.182.182,0,0,0-.063-.2.893.893,0,0,1-.145-.114.046.046,0,0,0-.011-.032c-.008-.006-.011-.024-.011-.052V39.1c-.027-.026-.051-.031-.072-.011s-.044.018-.073-.01a2.085,2.085,0,0,0-.613-.437,4.068,4.068,0,0,0-.842-.249,3.547,3.547,0,0,0-.874.02,4.228,4.228,0,0,0-.748.187,1.573,1.573,0,0,0-.52.281c-.139.118-.264.233-.374.344-.057.056-.111.108-.167.157a.34.34,0,0,0-.1.219.059.059,0,0,0-.021.04c-.028.014-.037.033-.031.051s0,.032-.031.032l-.022.022-.02.019a2.014,2.014,0,0,0-.125.364,1.572,1.572,0,0,1-.125.343v.083a.228.228,0,0,1,.021.1,8.778,8.778,0,0,0-.114,1.31q-.012.685-.012,1.351v1.446q0,.406.012.749c.006.23.017.4.031.509.028.083.059.188.094.312a.445.445,0,0,0,.177.271.38.38,0,0,0,.249.082,1.726,1.726,0,0,0,.312-.03c.11-.022.222-.045.332-.074a1.316,1.316,0,0,1,.313-.04q.6,0,.643.644.043.374-.114.488a2.189,2.189,0,0,1-.384.219,1,1,0,0,1-.344.031c-.145-.007-.309-.02-.49-.042s-.359-.045-.539-.071-.339-.05-.478-.063a8.239,8.239,0,0,0-1.248.011q-.562.052-1.227.135a.117.117,0,0,1-.083.021.322.322,0,0,0-.094-.021.194.194,0,0,0-.093.043,2.166,2.166,0,0,1-.26-.021,1.171,1.171,0,0,1-.3-.083.584.584,0,0,1-.25-.219.811.811,0,0,1-.1-.448.58.58,0,0,1,.2-.5.715.715,0,0,1,.49-.124,1.551,1.551,0,0,1,.394.072,1.048,1.048,0,0,0,.416.051.435.435,0,0,0-.083.167.132.132,0,0,0,.083-.062c.014-.029.055-.035.125-.022M137.2,38c0-.069-.013-.1-.041-.083s0,.054.041.083m.063-.125c.027.028.041.028.041,0s-.014-.028-.041,0m.437.146c-.042-.026-.059-.026-.052,0s.025.028.052,0m.353,8.692c.014.029.021.024.021-.011s-.007-.031-.021.011m1.06-8.484c-.029,0-.042.007-.042.02.028,0,.042-.006.042-.02m-.021-.686c.014.056.024.062.032.021s0-.049-.032-.021m.125.146c.027,0,.056-.05.083-.146-.027,0-.04,0-.04-.01s-.016-.018-.043-.032a.223.223,0,0,1,0,.188m.043,6.071c.013.028.024.028.031,0s0-.027-.031,0m.1-4.3c.056,0,.09-.014.1-.042a.089.089,0,0,1-.073-.041c-.021-.028-.011-.049.031-.063-.028,0-.045-.009-.052-.031s-.024-.024-.051-.01v.093a.126.126,0,0,0,.041.094m.145,3.493c-.041,0-.062.007-.062.021.041.042.062.033.062-.021m-.041-5.427a.084.084,0,0,0,.083-.042.093.093,0,0,1-.073.01c-.021-.007-.024,0-.01.031m0,2.017c0,.07.007.079.021.032s.007-.06-.021-.032m.041,3.389a.066.066,0,0,0,.063-.042c.013-.027.006-.042-.021-.042Zm.083-4.866V38.1c.027.014.042.006.042-.021s-.007-.034-.021-.02-.007.015-.021,0m.021,1.58c0,.014,0,.018-.01.011s-.01,0-.01.009a.018.018,0,0,0,.021-.02m.063-1.1c-.028,0-.042.007-.042.021.027,0,.042-.007.042-.021m-.042.436c.014.028.021.025.021-.009s-.007-.031-.021.009m.021,1.166a.568.568,0,0,1,.457.083.085.085,0,0,1,.041-.1.116.116,0,0,0,.083.043.1.1,0,0,1-.01-.115c.02-.035.038-.067.051-.094a.071.071,0,0,1-.063-.031c-.013-.02-.041-.025-.082-.01,0,.027.016.045.052.051s.044.031.03.073l-.02.021v.02c-.069-.027-.118-.035-.146-.02a.625.625,0,0,1-.146.042.377.377,0,0,1-.02-.083c0-.013-.028-.013-.083,0,0-.042-.027-.076-.083-.1a.189.189,0,0,1-.01.145.52.52,0,0,0-.051.083m.042,3.93a.037.037,0,0,0-.042-.042c0,.042.013.055.042.042m.019-3.7a.036.036,0,0,0-.041-.042.037.037,0,0,0,.041.042m.043,3.888c.014-.041.007-.065-.021-.072s-.028-.032,0-.073c-.041,0-.062.008-.062.022a.059.059,0,0,1,.031.072c-.007.035.01.052.052.052m-.031-6.508c-.006,0-.011.007-.011.02h.022c0-.013,0-.02-.01-.02m.113.458c-.027,0-.041.007-.041.02.028,0,.041-.006.041-.02m0,.769c.07-.028.1-.017.1.032s.034.073.1.073l-.063-.062c-.014-.014-.008-.035.021-.063a.057.057,0,0,1-.021-.041.34.34,0,0,0-.1.021c-.043.013-.055.027-.043.041m0-.436h.063c0-.027-.02-.035-.063-.021Zm.021,1c-.013-.014-.021-.014-.021,0a.019.019,0,0,1,.021.021Zm-.021.375c0,.027.008.041.021.041s.021.016.021.042c.055-.026.089-.026.1,0v-.082a.059.059,0,0,1-.073-.011q-.03-.03-.073.011m.126-1.187v-.1c-.014.029-.029.033-.042.011s-.035-.024-.063-.011c.028.07.063.1.1.1m.1.915c.013-.027.009-.044-.01-.052a.108.108,0,0,1-.052-.031c0,.028.007.045.021.052a.18.18,0,0,1,.042.031m-.021-.894a.259.259,0,0,0,.125.124.061.061,0,0,0,.021-.042.167.167,0,0,1,.02-.061.19.19,0,0,0-.072-.052c-.02-.007-.038-.032-.052-.073.014.028.006.041-.02.041s-.036.022-.021.063m.062,1.809c.014.028.021.025.021-.01s-.007-.032-.021.01m.083-.332c-.028.027-.042.035-.042.02h.021a.019.019,0,0,0,.021-.02m.124-1.373a.074.074,0,0,1,.1-.031c.043.022.063,0,.063-.073a.108.108,0,0,1-.094,0,.106.106,0,0,0-.093,0,.078.078,0,0,1-.011.052c-.007.007,0,.026.031.052m-.02.125c.028.028.041.028.041,0s-.013-.028-.041,0m.041.832c-.028,0-.041.007-.041.022.028,0,.041-.008.041-.022m.042-.083c-.028,0-.042.007-.042.022.028,0,.042-.008.042-.022m0,.062c.013.043.02.045.02.011s-.007-.039-.02-.011m.02-1.227c.028.014.041,0,.041-.031s.014-.052.043-.052c-.028.014-.043.006-.043-.021a.036.036,0,0,0-.041-.042c-.028.028-.028.052,0,.072s.028.046,0,.074m.084,1.186V39.6c-.043,0-.063.023-.063.073s.021.073.063.073m.063-.146a.037.037,0,0,1-.043-.043.037.037,0,0,0-.041-.042.052.052,0,0,0,.021.073c.026.021.048.025.063.012m.332-1.52c0,.056-.013.083-.041.083a.2.2,0,0,0-.084-.02.442.442,0,0,1-.124.083.134.134,0,0,1-.145,0,.089.089,0,0,1-.021.063.136.136,0,0,1,.124.062c.028.042.062.042.1,0-.028,0-.042-.011-.042-.031s.014-.038.042-.052a.117.117,0,0,0,.083.042h.125c.027-.013.027-.031,0-.053s-.029-.037,0-.051.044-.032.051-.012a.048.048,0,0,0,.052.032.1.1,0,0,1,.073-.073c.035-.006.052-.038.052-.094-.014,0-.021,0-.021-.01s-.013-.011-.041-.011a.082.082,0,0,1-.083.041Zm-.083.333a.035.035,0,0,1-.011-.042c.008-.013-.01-.013-.053,0-.012.028-.012.042,0,.042s.014.013,0,.042a.111.111,0,0,0-.093,0c-.021.014-.045.008-.073-.02,0,.028,0,.042-.011.042s-.009.014-.009.041c.04-.014.062-.01.062.011s.028.039.083.052q0-.063.041-.063c-.027.042-.031.067-.009.073a.049.049,0,0,1,.031.052.14.14,0,0,1-.1.041.083.083,0,0,0,.021.063.083.083,0,0,1,.021.063.061.061,0,0,1-.073.032.058.058,0,0,0-.072.03c.026,0,.04.018.04.053s.014.051.042.051a2.512,2.512,0,0,1,.209-.291.52.52,0,0,1,.311-.166c-.028-.054-.028-.091,0-.1a.131.131,0,0,0,.062-.062l-.124.062c0-.028-.043-.042-.125-.042a.071.071,0,0,1-.042.094.085.085,0,0,1-.1-.01c-.014-.028,0-.042.032-.042s.037-.014.009-.042-.037-.023-.031.011,0,.045-.031.031m-.229.936c.069.014.107.007.114-.021s.031-.041.073-.041c.013-.124-.018-.162-.093-.115a.165.165,0,0,0-.094.177m.042-1.289a.32.32,0,0,1-.022.1.186.186,0,0,1,.083-.051.087.087,0,0,0,.062-.052c-.027-.013-.044-.018-.052-.01s0,0,.011-.032a.119.119,0,0,0-.083.041m.354-.25c.041.028.062.028.062,0s-.021-.027-.062,0m.02.125c.028-.013.042-.006.042.021a.037.037,0,0,0,.041.042c0-.015.011-.018.031-.011s.024,0,.01-.031a.1.1,0,0,1-.051-.053c-.006-.021-.024-.031-.052-.031,0,.028,0,.042-.01.042s-.011.007-.011.02m.1.374h.02c.029-.027.025-.042-.01-.042s-.044.014-.031.042Zm0-.416a.088.088,0,0,0,.072.01c.021-.006.038,0,.052.032-.014.028-.031.032-.052.01s-.024-.01-.01.031c.069,0,.1-.014.1-.042a.448.448,0,0,1-.062-.072.094.094,0,0,0-.084-.032.045.045,0,0,1-.01.032.042.042,0,0,0-.009.03m.082.313c.042-.014.066-.006.073.02a.049.049,0,0,0,.052.042c.014-.068.051-.089.114-.062a.187.187,0,0,1,.114.1.067.067,0,0,1,.02-.042c.014-.014.014-.035,0-.062l-.124-.083c-.041-.029-.083-.015-.124.04a.114.114,0,0,1-.01-.083c.006-.027,0-.034-.031-.02.028.055.021.091-.02.1s-.063.029-.063.043m.042.374c.028.028.053.031.073.01a.281.281,0,0,0,.052-.073.17.17,0,0,1-.073.021c-.021,0-.039.014-.053.042m.167-.083c.027.028.047.032.062.011s.02-.017.02.01c-.056,0-.082.021-.082.063a.2.2,0,0,1,.124.052c.04.035.076.032.1-.011-.083,0-.125-.027-.125-.083.041,0,.061-.007.061-.021s-.031-.038-.051-.032a.043.043,0,0,1-.051-.009.052.052,0,0,0,.01-.053c-.007-.02,0-.03.031-.03a.019.019,0,0,1,.021.02c0,.013.014.021.04.021a.929.929,0,0,1,.23-.146.166.166,0,0,0-.072-.021c-.022,0-.039-.014-.053-.042a.231.231,0,0,1-.187.125.194.194,0,0,1-.061.072.053.053,0,0,0-.021.073m.041-.935c.029.028.038.028.032,0s-.018-.028-.032,0m.084.249c.027-.027.031-.051.01-.072s-.01-.033.031-.033a.118.118,0,0,0,.053.033c.021.007.031-.011.031-.051a.124.124,0,0,1-.072-.022.1.1,0,0,0-.094,0,.069.069,0,0,1,.021.083.04.04,0,0,0,.021.062m.1-.208h-.021c.041-.013.062,0,.062.041a.221.221,0,0,0,.073-.01.227.227,0,0,1,.073-.011.132.132,0,0,0-.094-.1.26.26,0,0,1-.115-.062c-.028.014-.024.028.01.041s.045.035.031.063h-.062a.089.089,0,0,0,.021.062c.014.013.021.007.021-.021m.062.6c0-.055-.007-.083-.02-.083a.049.049,0,0,0-.031.061c.008.029.024.035.051.022m-.042-.458v.1c.042,0,.06-.014.052-.042s.011-.02.053.021a.151.151,0,0,1-.022-.072c0-.021-.013-.033-.042-.033,0,.014-.013.022-.042.022m.083.415h.084c0,.029.006.043.022.043a.117.117,0,0,0-.022-.083.086.086,0,0,0-.084.04m.022-.437c.027.029.037.029.03,0s-.017-.027-.03,0m0,9.192a.083.083,0,0,0,.041.083.09.09,0,0,1,.021-.052c.014-.021.006-.039-.021-.052a.062.062,0,0,1-.041.02m.041-.083c.056-.028.063-.042.021-.042s-.049.014-.021.042m.043-9.4c-.016,0-.022.007-.022.022h.042c0-.015-.007-.022-.02-.022m0,.229a.113.113,0,0,0,.082.01.05.05,0,0,0,.042-.052c-.042,0-.062-.007-.062-.021-.028-.028-.036-.041-.021-.041,0,.028-.008.045-.021.051s-.02.024-.02.052m.02.624c-.014,0-.02.008-.02.02h.041a.019.019,0,0,0-.021-.02m.1-.79a.037.037,0,0,0-.042-.041.037.037,0,0,0,.042.041m0,9.275c-.028.027-.042.034-.042.02.027,0,.042-.007.042-.02m-.021-8.589c.069,0,.1.029.1.083a.116.116,0,0,0,.083-.022c.014-.026.014-.04,0-.04s-.014-.014,0-.043c-.027.029-.045.036-.052.021a.349.349,0,0,0-.052-.061c-.013.027-.031.038-.052.03s-.031,0-.031.031m0,.125c.013.028.024.028.031,0s0-.027-.031,0m.207,8.588h-.021c-.027,0-.041-.008-.041-.022s-.014-.02-.042-.02a.039.039,0,0,1-.011.031.046.046,0,0,0-.01.031.049.049,0,0,1,.052.031.094.094,0,0,0,.052.052c-.014-.055-.007-.083.021-.083a.069.069,0,0,0,.063-.042.086.086,0,0,1-.073-.041c-.021-.028-.039-.028-.053,0a.063.063,0,0,0,.041.021c.014,0,.021.014.021.042m-.1-9.317a.314.314,0,0,0,.125.042c.014-.027,0-.052-.042-.073s-.07-.01-.083.031m.125.665c0-.026.006-.04.022-.04s.02-.006.02-.022c-.028-.013-.049-.01-.063.01s-.007.039.021.052m0-.706a.042.042,0,0,1,.031.01c.008.008.024.011.053.011-.028-.056-.049-.083-.062-.083a.084.084,0,0,1-.022.062m.042.165c0-.026.006-.037.02-.03a.033.033,0,0,1,.021.03c.014-.055,0-.082-.041-.082.013.027.01.046-.011.052s-.017.017.011.03m.041,9.213c-.015.07-.01.079.011.031s.016-.059-.011-.031m.062-9.378c.027.027.038.027.031,0s-.016-.028-.031,0m.041-.145c.014,0,.022.02.022.062a.223.223,0,0,0,.1-.084.1.1,0,0,1-.093,0c-.021-.013-.032-.007-.032.022m.041.768a.081.081,0,0,1,.063-.01c.013.008.021,0,.021-.03a.124.124,0,0,0-.084.04m.063-.186h.021c.028-.028.024-.042-.011-.042s-.045.007-.031.021Zm.166-.25c0-.027-.013-.04-.041-.04a.035.035,0,0,1,.011.04c-.007.014,0,.014.03,0m.084,0v.042c.027.014.045.007.051-.02s0-.035-.031-.022c0,.014-.008.014-.021,0m.353-.145c.027-.014.035,0,.021.031s-.007.045.022.031c0-.028.006-.044.019-.051s.021-.025.021-.052c-.056,0-.083.014-.083.041m.165.354c.015.028.021.024.021-.01s-.006-.032-.021.01m.147.083c0-.026,0-.041.011-.041s.01-.014.01-.042h-.043c-.028.042-.02.069.022.083m0-.541c.041,0,.063-.014.063-.042-.015,0-.021-.006-.021-.02h-.041Zm0,.249v.022c.027.027.044.025.052-.01s0-.046-.031-.033c0,.016-.007.021-.021.021m.166,9.524a.122.122,0,0,1,.031-.062c.02-.028.01-.041-.031-.041a.084.084,0,0,1-.02.062c-.015.013-.007.029.02.042m-.02-9.482h.02v.041h-.02Zm.02.1a.264.264,0,0,1,.156.01c.063.021.08.06.052.115a.092.092,0,0,0,.032-.083.085.085,0,0,1,.031-.084c-.028.014-.056-.014-.083-.083a.147.147,0,0,1-.125-.022.12.12,0,0,1-.02.083.2.2,0,0,0-.041.063m.124,9.691c.014.028.024.028.032,0s0-.028-.032,0m.229-9.795c.028-.013.049-.013.063,0s.029.007.042-.02c-.042-.043-.077-.035-.1.02m0,9.835c.043,0,.063-.013.063-.041-.041-.043-.063-.028-.063.041m.27-9.461c0,.057,0,.063.011.02s0-.048-.011-.02m.126-.187c.041.013.068.011.081-.01a.179.179,0,0,1,.063-.053c0-.027-.017-.03-.052-.01s-.046,0-.03-.073h-.062a.142.142,0,0,1,0,.146m.02.29c.056.014.087.011.094-.009a.1.1,0,0,1,.051-.053c-.013,0-.02-.006-.02-.021a.018.018,0,0,0-.02-.02c0,.028-.018.041-.052.041s-.053.022-.053.062m.083-.144c0-.042-.006-.062-.021-.062s-.006.035.021.062m.042-.291a.115.115,0,0,0,.083-.041c-.055-.013-.063-.031-.021-.053s.049-.044.021-.073c-.027,0-.041-.007-.041-.02a.28.28,0,0,0-.062.093.081.081,0,0,0,.02.094m0-.374h.042c.028-.028.02-.047-.021-.062a.078.078,0,0,1-.02.062m.02.688c.029.013.049.009.063-.011a.16.16,0,0,1,.062-.052.442.442,0,0,0-.125.063m.063-.583a.119.119,0,0,1,.062.1c.029,0,.042-.034.042-.1-.042-.028-.077-.028-.1,0m.062.644c.042-.013.069-.01.085.01a.129.129,0,0,0,.061.052c.026-.026.041-.047.041-.062-.027-.013-.063-.026-.1-.041a.059.059,0,0,0-.085.041m.085-.706c.026.027.036.027.03,0s-.018-.028-.03,0m.04.374c.028,0,.035.014.021.041s-.007.036.02.022a.351.351,0,0,1,.1-.1.147.147,0,0,0-.146.042m.084.458c-.029,0-.043.007-.043.02.027,0,.043-.006.043-.02m.1-.6c.014,0,.035-.033.062-.1a.234.234,0,0,1-.062-.041.088.088,0,0,0-.063-.021c-.027.041-.031.073-.009.094s.044.045.072.071m-.063.9a.118.118,0,0,0,.082-.041c-.055,0-.082.014-.082.041m.063-.145a.372.372,0,0,1,.083.01.085.085,0,0,0,.083-.031.135.135,0,0,1-.073-.021.783.783,0,0,0-.074-.042.136.136,0,0,0-.019.084m.083-.624a.073.073,0,0,0,.083-.083.073.073,0,0,0-.083.083m0,.769c.027,0,.04.007.04.02.029.015.046.011.054-.01s.022-.024.051-.01c-.015-.027-.011-.049.011-.062s.016-.027-.011-.042a.376.376,0,0,1-.083.032c-.028.006-.049.031-.062.072m.124-.832c.028.054.049.066.063.031s-.006-.044-.063-.031m.063,1.019c.013-.013.013-.034,0-.063-.014-.013-.035.008-.063.063.057.014.084.041.084.083a.188.188,0,0,1,.208.042c-.043-.056-.028-.1.041-.125-.041-.013-.048-.034-.02-.063s.02-.047-.021-.061a.214.214,0,0,1-.229.124m.167,8.816a.019.019,0,0,1,.019-.021c.029,0,.043,0,.043.011s.007.01.021.01c.013-.041-.007-.062-.063-.062.014.014.007.025-.019.031s-.029.018,0,.031m0-9.544c.026.015.045,0,.051-.041s0-.062-.032-.062a.179.179,0,0,0-.019.1m.145-.062h0m-.021,9.69c.013.027.021.027.021,0s-.008-.028-.021,0m.021-.062c.014,0,.022.006.022.02a.117.117,0,0,0,.081-.042c-.069-.027-.1-.021-.1.022m.062-9.108c-.029.028-.041.035-.041.021a.063.063,0,0,0,.041-.021m.1.728c.014-.028,0-.042-.031-.042s-.052.007-.052.021c.027,0,.041,0,.041.01s.014.011.041.011m.022-.4c.013.07.024.08.031.031s0-.057-.031-.031m.083.417a.1.1,0,0,0-.031-.073c-.02-.022-.039-.018-.052.01.027-.014.041,0,.041.031s.014.046.042.032m.021-.313c.013.028.021.024.021-.01s-.008-.031-.021.01m.1,1.435c.027.028.043.028.043,0s-.015-.028-.043,0m.1-.374h-.041a.034.034,0,0,1,.031.02c.006.014.01.007.01-.02m-.021.208c.028.013.043,0,.043-.032s-.015-.043-.043-.03Zm.021,2.225c.042-.043.044-.062.011-.062s-.039.02-.011.062m.083-1.621c.028-.015.03-.031.009-.053s-.037-.017-.051.011a.02.02,0,0,1,.021.022c0,.014.006.021.02.021m-.042.144.083.042a.071.071,0,0,0,0-.073.131.131,0,0,1-.021-.073c-.041-.014-.062.021-.062.1m.042,2.267a.119.119,0,0,0,.1-.062h-.062c-.014,0-.027.02-.041.062m.041,1.33v-.062c-.027.014-.041.028-.041.042s.014.02.041.02m-.021-4.1a.094.094,0,0,0,.073.052.076.076,0,0,0,.073-.011.066.066,0,0,1-.073-.062.2.2,0,0,0-.052-.1q.02.062,0,.072c-.014.007-.021.024-.021.052m.042.395c.041-.014.06,0,.053.031s0,.046.031.031.035-.031.021-.051a.068.068,0,0,1,0-.073.019.019,0,0,1-.021-.022c0-.014-.014-.014-.042,0,0,.028,0,.043-.01.043s-.017.014-.032.041m.125,1.04c-.014-.014-.029-.028-.042-.042s-.042-.013-.083,0c0,.028.02.049.062.062s.063.008.063-.02m-.02-2.558a.019.019,0,0,0-.021.022.019.019,0,0,0,.021-.022m.062,3.639-.042-.041c-.014.028-.011.049.011.063s.031.007.031-.022m-.042-4.553c.014.028.022.028.022,0s-.008-.027-.022,0m.1.873h-.063c-.014.042,0,.063.032.063s.044-.022.031-.063m-.043,3.307a.163.163,0,0,0,.1-.033.4.4,0,0,1,.1-.052c-.07.029-.091,0-.063-.082.041,0,.063-.006.063-.021a.16.16,0,0,0-.177.021.133.133,0,0,0-.032.167m0,3.368a.158.158,0,0,0,.022.1c0-.069.021-.1.062-.083a.417.417,0,0,0,.126.02c0-.027-.008-.041-.022-.041s-.02-.013-.02-.041a.168.168,0,0,1-.094.01c-.021-.008-.046,0-.074.031m.022-.79c.014-.027.028-.031.041-.01s.028.018.042-.011c0-.069-.014-.1-.042-.1a.068.068,0,0,1-.041.063c-.029.013-.029.035,0,.061m.021.562a.066.066,0,0,1,.02-.043c.014-.013.006-.026-.02-.041a.1.1,0,0,1-.021.053c-.014.021-.007.031.021.031m-.021-6.467c.014.028.021.025.021-.01s-.007-.031-.021.01m.041.5c-.027,0-.041.008-.041.021.028,0,.041-.007.041-.021m-.041,4.221c0,.013.014.024.041.032a.051.051,0,0,0,.063-.032c-.042,0-.059-.022-.052-.062s-.011-.063-.052-.063a.076.076,0,0,1,.01.063.14.14,0,0,0-.01.062m.062-5.22a.019.019,0,0,0-.021.021c0-.013,0-.019.011-.011s.01,0,.01-.01m.042,5.844c.027.027.027.023,0-.01s-.028-.032,0,.01m-.021-1.851a.057.057,0,0,0,.083.01.077.077,0,0,1,.083-.01c.028.069.054.1.083.1a.073.073,0,0,1,.083-.083c-.042-.07-.091-.1-.145-.084a1.466,1.466,0,0,0-.188.063m.021-2.828h.042c.014-.027.006-.044-.021-.051s-.035,0-.021.031c.013,0,.013.007,0,.02m.062.188c.029-.028.024-.042-.011-.042s-.051.006-.051.02Zm.083,4.782c-.027,0-.049-.022-.062-.062s-.042-.043-.083,0a.089.089,0,0,1,.073.051c.021.035.045.039.073.011m-.083-.625c0-.027.011-.042.032-.042s.031-.013.031-.041a.093.093,0,0,0-.073.041c-.02.029-.016.042.011.042m0-4.3c.013.028.022.025.022-.01s-.008-.032-.022.01m.062.895a.116.116,0,0,0-.041-.083.1.1,0,0,1,.01.073c-.008.02,0,.025.031.01m-.041,2.287c.028.056.041.062.041.02s-.013-.048-.041-.02m.02.083c-.029.042-.02.055.02.042s.035-.028-.02-.042m.063-1.456a.14.14,0,0,1,.124-.031.375.375,0,0,1,.124.031c0-.056-.035-.077-.1-.062s-.118,0-.145-.043c.013.027.009.049-.011.062s-.018.029.011.043m0,2.162a.04.04,0,0,0,.061-.02c.014-.028.014-.041,0-.041-.014.026-.031.037-.053.029s-.023,0-.009.031m.061-2.017v-.063c-.042,0-.061.008-.061.022.027-.014.037-.006.03.02s0,.036.031.022m0-1.955a.033.033,0,0,0-.021-.031c-.014-.007-.021,0-.021.031.013-.014.021-.014.021,0s.007.014.021,0m.021,3.286c.028.041.041.045.041.01s-.014-.037-.041-.01m0,2.911c.028-.028.034-.022.021.021s-.008.062.02.062a.185.185,0,0,0,.021-.083c0-.028-.021-.048-.063-.062Zm.041-5.718.042-.042c-.014,0-.02-.006-.02-.021h-.042q0,.063.02.063m0,2.142c-.014.041,0,.059.042.053s.056,0,.043.031c-.043.041-.043.1,0,.165a.244.244,0,0,0-.1.23.373.373,0,0,1,.167.1.17.17,0,0,0,.041-.124c-.069,0-.1-.013-.1-.042a.117.117,0,0,0,.051-.042.112.112,0,0,1,.052-.041.8.8,0,0,1,.01-.134.514.514,0,0,0,.011-.114.1.1,0,0,1-.1-.083.019.019,0,0,0-.02-.021c0,.014-.028.021-.084.021m0,2.578c.042,0,.063-.007.063-.021-.042,0-.063.008-.063.021m.084-1.975c-.028,0-.043.006-.043.02a.063.063,0,0,0,.043-.02m-.043.269h.043a.038.038,0,0,0-.043-.042Zm0,.125a.033.033,0,0,1,.043-.009c.013.006.013,0,0-.033h-.043Zm0,.915h.146c.013-.041-.007-.065-.063-.073s-.083.018-.083.073m.043-2.038c.013,0,.02.022.02.062.028,0,.055-.027.083-.083-.028.014-.049.014-.063,0s-.027-.006-.04.021m.02,3.265c.028,0,.049-.024.062-.073s.006-.072-.02-.072a.169.169,0,0,0-.022.072.172.172,0,0,1-.02.073m.166-3.119c0-.042-.028-.062-.083-.062-.028.028-.028.052,0,.072a.056.056,0,0,0,.083-.01m0,1.061c0-.014-.013-.025-.04-.032a.051.051,0,0,0-.063.032.17.17,0,0,1,.063.021c.027.013.04.005.04-.021m0,.144c.014.057.007.083-.021.083a.066.066,0,0,0-.062.042c.028.028.075.028.145,0s.084-.069.043-.125Zm0-1.329c.014.04.022.045.022.009s-.008-.038-.022-.009m.687,5.239c0-.042-.007-.062-.021-.062-.04.041-.035.062.021.062m.187-.541c.014.029.02.024.02-.01s-.006-.033-.02.01" transform="translate(-81.633 -22.189)" fill="#fff"/>
      <path id="Path_48" data-name="Path 48" d="M181.355,33.1a1.353,1.353,0,0,1,.4.874,1.185,1.185,0,0,1-.074.645,3.276,3.276,0,0,1-.279.457.946.946,0,0,1-.747.291c-.112-.026-.21-.051-.292-.073a.755.755,0,0,1-.291-.176,1.2,1.2,0,0,1-.189-.364.485.485,0,0,1,.085-.468c.069-.1.124-.169.166-.219a1.541,1.541,0,0,1,.166-.156v-.02a.736.736,0,0,0-.114-.125l-.156-.124c-.014-.028-.007-.038.021-.031a.05.05,0,0,0,.063-.031c-.07-.014-.157-.028-.26-.041a.445.445,0,0,1-.261-.125h-.062a.322.322,0,0,1-.145.052,1.16,1.16,0,0,0-.209.053,2.7,2.7,0,0,0-.321.114.631.631,0,0,0-.3.3,1.888,1.888,0,0,0-.157.354,1.458,1.458,0,0,0-.051.416v.166c.041.027.166.125.374.291a3.211,3.211,0,0,1,.353.322,1.4,1.4,0,0,1,.25.385.679.679,0,0,1,.177.217c.048.091.1.192.155.3a3.146,3.146,0,0,1,.2.687,3.531,3.531,0,0,1,.073.582,2.778,2.778,0,0,1-.113.936,4.078,4.078,0,0,1-.324.77c-.111.151-.226.3-.343.446a3.488,3.488,0,0,1-.51.489c-.1.069-.2.141-.322.217a2.151,2.151,0,0,1-.322.177c-.1.043-.228.091-.4.147s-.3.1-.415.124a3.722,3.722,0,0,1-.718.124,5.057,5.057,0,0,1-.779-.02,5.154,5.154,0,0,1-.624-.094,2.835,2.835,0,0,1-.541-.156.136.136,0,0,1,.042-.115.727.727,0,0,0,.083-.072.122.122,0,0,0-.021-.072.142.142,0,0,1-.021-.073.162.162,0,0,1-.114.166c-.077.029-.1.077-.073.146-.138-.041-.308-.1-.508-.187a5.287,5.287,0,0,0-.511-.187.779.779,0,0,0-.706.187,1.164,1.164,0,0,0-.209.333.756.756,0,0,0-.062.458,1,1,0,0,0,.447.623,2.054,2.054,0,0,0,.738.249q.311.042.905.073t1.133.01a5.22,5.22,0,0,1,.863.031c.283.035.5.059.635.072.193.028.382.049.562.063a.829.829,0,0,1,.457.166.118.118,0,0,0,.083.042.159.159,0,0,0,.114,0,.3.3,0,0,1,.115-.021h.062a4.359,4.359,0,0,1,.676.26,6.286,6.286,0,0,1,.613.342.124.124,0,0,1,.041.084l.02.021c0,.014.008.02.022.02.041,0,.063.014.063.041a.274.274,0,0,0,.113.125c.049.028.1.055.157.083a.067.067,0,0,1,.021.042.438.438,0,0,0,.062.1.75.75,0,0,1,.261.282,1.8,1.8,0,0,0,.217.322v.042l.021.04c0,.056-.011.091-.031.1s-.017.042.01.083c0,.041.014.063.041.063a.09.09,0,0,1,.074.051.413.413,0,0,0,.073.094.042.042,0,0,0,.01.032.084.084,0,0,1,.011.052,1.947,1.947,0,0,1,0,.375q-.023.166-.043.435v.084a.182.182,0,0,1,.021.063.056.056,0,0,0,.021.041v.062a2.03,2.03,0,0,1-.345.9,6.03,6.03,0,0,1-.447.51,2.455,2.455,0,0,1-.437.353,4.73,4.73,0,0,1-.541.332,3.55,3.55,0,0,1-.6.239c-.208.062-.436.129-.686.2q-.125.022-.323.062c-.132.029-.273.053-.425.073s-.309.035-.469.042-.308.01-.447.01a.746.746,0,0,1-.187-.021l-.165-.042a4.219,4.219,0,0,0-.438.022,4.135,4.135,0,0,1-.415.02,4.68,4.68,0,0,1-.614-.042c-.216-.026-.419-.062-.613-.1s-.367-.084-.521-.124a2.178,2.178,0,0,1-.311-.1,1.349,1.349,0,0,1-.312-.106c-.124-.054-.249-.117-.374-.186s-.246-.139-.364-.207a1.519,1.519,0,0,1-.26-.188,3.7,3.7,0,0,1-.436-.426,2.348,2.348,0,0,1-.332-.572,2.3,2.3,0,0,1-.2-.749,3.577,3.577,0,0,1,.032-.81,1.5,1.5,0,0,0,.062-.2,1.1,1.1,0,0,1,.062-.2,3.171,3.171,0,0,1,.406-.634,2.622,2.622,0,0,1,.677-.531c.068-.041.155-.09.259-.145a2.869,2.869,0,0,1,.322-.146v-.042a2.607,2.607,0,0,0-.311-.146,1.608,1.608,0,0,1-.354-.187,2.914,2.914,0,0,1-.6-.541,1.56,1.56,0,0,1-.373-.956,1.777,1.777,0,0,1,.146-.946,1.737,1.737,0,0,1,.352-.51,2.279,2.279,0,0,1,1.04-.625.122.122,0,0,1,.083-.042.119.119,0,0,0,.083-.042,1.752,1.752,0,0,1-.271-.446,1.949,1.949,0,0,1-.144-.407,2.721,2.721,0,0,1-.126-.686,3.013,3.013,0,0,1,.063-.768,1.8,1.8,0,0,1,.063-.261c.026-.09.055-.177.083-.26a2.091,2.091,0,0,1,.26-.509,4.842,4.842,0,0,1,.343-.426,3.125,3.125,0,0,1,.811-.666,3.316,3.316,0,0,1,1.019-.416,4.835,4.835,0,0,1,1.186-.146,5.585,5.585,0,0,1,.582.032,3.7,3.7,0,0,1,.645.135,1.814,1.814,0,0,1,.072-.53,5.006,5.006,0,0,1,.177-.489,1.578,1.578,0,0,1,.332-.458,1.391,1.391,0,0,1,.521-.333,1.321,1.321,0,0,1,.561-.187,2.81,2.81,0,0,1,.645-.041,2.35,2.35,0,0,1,.571.021c.146.028.315.069.509.125a1.461,1.461,0,0,1,.437.229,3.29,3.29,0,0,1,.395.332m-9.773,11.5a.026.026,0,0,1,.041,0v-.041c-.013,0-.02,0-.02-.012s-.013-.009-.042-.009c0,.042.007.062.021.062m.353,2.329a.174.174,0,0,1-.051-.031.091.091,0,0,0-.052-.009c-.028.041-.017.061.031.061s.073-.006.073-.02m.146-2.1a.054.054,0,0,0-.062-.062c0,.028.007.041.021.041a.06.06,0,0,1,.041.022m.27,2.723a.268.268,0,0,0-.051-.041c-.02-.013-.031,0-.031.041a.043.043,0,0,1,.062.012c.014.02.02.016.02-.012m.1-2.952c.028-.027.025-.045-.01-.053s-.052,0-.052.033a.04.04,0,0,1,.031.01.051.051,0,0,0,.031.01m4.116-.852c-.208-.013-.439-.022-.7-.022a6.233,6.233,0,0,0-.738.042l-.448.061a5.2,5.2,0,0,0-.551.1,5.664,5.664,0,0,0-.54.2,2.819,2.819,0,0,0-.458.238,1.417,1.417,0,0,0-.728,1.061,1.516,1.516,0,0,0,.031.5,1.3,1.3,0,0,0,.2.4,1.172,1.172,0,0,0,.417.415c.166.1.29.175.374.23a.832.832,0,0,0,.2.114,2.693,2.693,0,0,0,.458.146c.2.047.454.092.76.134a8.552,8.552,0,0,0,1.123.062,7.054,7.054,0,0,0,1.227-.093,4.928,4.928,0,0,0,.872-.228,3.52,3.52,0,0,0,.573-.271c.145-.09.252-.163.323-.218a2.514,2.514,0,0,0,.435-.354l.021-.041c0-.082.013-.132.041-.145v-.041a.253.253,0,0,1-.011-.115.626.626,0,0,0,.011-.135.142.142,0,0,0,.095.011.571.571,0,0,1,.113-.011l.021-.021a1.053,1.053,0,0,0-.145-.124c-.014-.041-.008-.062.02-.062s.035-.015.02-.042a.064.064,0,0,0-.062-.042.066.066,0,0,1-.063-.041,1.106,1.106,0,0,0-.1-.457c.069-.013.112-.007.124.022a.14.14,0,0,0,.083.062.1.1,0,0,0,.031-.094.185.185,0,0,0-.051-.093.053.053,0,0,1-.084,0,.14.14,0,0,0-.1-.042.071.071,0,0,0-.011.062c.007.014,0,.021-.031.021a1.213,1.213,0,0,0-.352-.437,4.163,4.163,0,0,0-.417-.291c.027-.055.083-.069.167-.042s.132.007.146-.062a.091.091,0,0,1-.063.02c-.056,0-.077-.028-.063-.083,0-.07.029-.084.083-.042s.091.028.105-.042a.069.069,0,0,0-.083-.053.151.151,0,0,1-.1-.011.122.122,0,0,0-.009.085c.007.027,0,.041-.031.041-.083-.027-.136-.018-.155.032a.258.258,0,0,1-.094.114,4.9,4.9,0,0,0-1.873-.415m-3.991-.584a.083.083,0,0,0,.083-.041c-.029,0-.041,0-.041-.011s-.007-.011-.021-.011,0,.022-.011.022-.01.014-.01.041m.063-4.241v.063c.042.013.062.007.062-.022a.066.066,0,0,1,.043-.062.165.165,0,0,0-.1.021m.062.4c0,.069.008.08.022.031s.006-.058-.022-.031m.084.4c0-.069-.014-.106-.041-.106a.075.075,0,0,0-.043.073c0,.035.028.045.084.033m-.021,3.784a.044.044,0,0,1,.031.01c.006.007.024.01.052.01a.05.05,0,0,0-.041-.052c-.027-.006-.042,0-.042.032m.021-4.221c.028.027.045.024.051-.011a.06.06,0,0,0-.031-.073.127.127,0,0,0-.02.084m.52,1c0-.055-.013-.084-.042-.084,0,.071.014.1.042.084m-.042,2.973v.022h.042c.028-.028.02-.043-.021-.043a.018.018,0,0,1-.021.021m.061.313a.414.414,0,0,0-.031.1.118.118,0,0,0,.031.1.4.4,0,0,1,.094-.167c.049-.055.06-.1.032-.146-.028.1-.069.132-.126.1m0-4.472c.029-.027.054-.03.073-.01s.032.01.032-.031c-.014.014-.04.014-.073,0s-.046,0-.033.041m.022,4.846c.028,0,.041-.007.041-.021-.027,0-.041.007-.041.021m.126-.687c.012-.041-.007-.062-.063-.062a.056.056,0,0,0,.063.062m.082.729v.041a.019.019,0,0,1,.022.022.135.135,0,0,0,.031-.053c.007-.021,0-.031-.031-.031a.019.019,0,0,1-.022.022m.043-5.115v.04c.027.014.045.007.052-.021s0-.041-.032-.041c0,.014-.007.022-.02.022m.1-3.786c.041,0,.062-.017.062-.052a.134.134,0,0,1,.042-.094c-.042.014-.075.063-.1.146m0,8.359c.055,0,.083-.02.083-.063-.014,0-.043.021-.083.063m0,.1q.022.042.022,0t-.022,0m2.953-7.818a2.211,2.211,0,0,0-.478-.073c-.165-.007-.32-.01-.458-.01a.4.4,0,0,1-.1-.042c-.041.027-.094.059-.156.092a.149.149,0,0,1-.177-.009.351.351,0,0,1-.229.144,1.514,1.514,0,0,0-.291.1,2.277,2.277,0,0,0-.395.293,2.379,2.379,0,0,0-.333.354,1.523,1.523,0,0,0-.208.4c-.041.133-.076.26-.1.386a2.045,2.045,0,0,0,.332,1.476.605.605,0,0,1,.124.208l.083.041a.155.155,0,0,1,.063.063l.021.041c.026.029.045.039.051.031s.024,0,.051.011a.067.067,0,0,1,.022.052c0,.02.013.031.041.031a.452.452,0,0,1,.208.1,1.543,1.543,0,0,0,.531.208,2.464,2.464,0,0,0,.426.063.566.566,0,0,1,.156.022.7.7,0,0,0,.178.019h.04a.556.556,0,0,1,.239-.071.549.549,0,0,0,.24-.073h.062a.632.632,0,0,0,.2-.032.389.389,0,0,1,.2-.01h.021a.507.507,0,0,0,.239-.114,1.294,1.294,0,0,1,.26-.177c.014,0,.028-.011.041-.031a.159.159,0,0,1,.063-.051h.084a.065.065,0,0,0,.02-.043,1.12,1.12,0,0,1,.332-.352c.028,0,.043-.028.043-.084a1.488,1.488,0,0,1,.084-.259,1.936,1.936,0,0,0,.083-.261,2.115,2.115,0,0,0,.051-.416,2.156,2.156,0,0,0-.032-.478,1.534,1.534,0,0,0-.259-.633,2.026,2.026,0,0,0-.3-.364,2.6,2.6,0,0,0-.51-.323c-.187-.089-.371-.169-.551-.238m-2.869,7.818c.041,0,.063-.006.063-.021-.042-.041-.063-.034-.063.021m.353-4.262h.042c0-.042-.013-.048-.042-.022Zm.083.207a.129.129,0,0,1,.011.084.049.049,0,0,0,.031.062c.042-.014.065-.016.073-.01s.024.025.052.052a.443.443,0,0,1-.009-.165c.006-.041-.018-.077-.073-.1a.124.124,0,0,1-.042.053.127.127,0,0,0-.042.03m.083.582a.04.04,0,0,0,.063.021.041.041,0,0,0,.02-.063.123.123,0,0,0-.083.041m.144,3.452a.165.165,0,0,1-.062-.02c-.027-.014-.04-.014-.04,0a.081.081,0,0,1,.051.031c.021.02.038.018.051-.011m-.02,4.534c.014-.028,0-.049-.031-.062s-.051-.007-.051.02c.026.042.054.055.082.042m-.021-8.109c0,.028.014.035.041.021s.049-.015.063,0c.014-.028,0-.049-.041-.062s-.063,0-.063.041m.063.248c.013.071.024.081.032.031s0-.058-.032-.031m.041,3.514a.038.038,0,0,1,.042.043.036.036,0,0,0,.041.04.133.133,0,0,0,.01-.093c-.007-.035-.031-.045-.072-.031,0,.027-.006.041-.021.041m.541-3.514a.241.241,0,0,0-.135,0,.312.312,0,0,1-.156,0c0,.029-.008.045-.021.053s-.021.023-.021.052a.209.209,0,0,0,.074.052c.02.008.024.031.011.073a.356.356,0,0,1,.372-.042l.043-.042c.013-.027.013-.048,0-.062a.079.079,0,0,1-.021-.062c-.069.028-.1.02-.1-.022a.084.084,0,0,0-.041-.083c.014.028.017.045.011.052a.04.04,0,0,0-.011.031m-.312-.145c.027,0,.042.007.042.02s.014.021.041.021a.047.047,0,0,1,.011-.031c.006-.007,0-.024-.011-.052a.058.058,0,0,1-.041.02.061.061,0,0,0-.042.021m.021,3.109c.013-.008.006-.017-.021-.031v.062a.032.032,0,0,1,.021-.031m.062-3.3c.043.028.076.028.1,0a.137.137,0,0,0,.042-.1c-.084.029-.132.063-.146.1m.043.79c.013.042.019.045.019.012s-.006-.039-.019-.012m.353-.144c.026.027.041.027.041,0s-.014-.028-.041,0m.041-.479v-.061a.031.031,0,0,1-.021.031c-.014.007-.006.017.021.031m.084.334c-.014.028-.011.037.009.03a.055.055,0,0,1,.053.01c0-.04-.008-.062-.022-.062,0,.042-.013.05-.041.022m.082-.23a.163.163,0,0,0,.1.02c0-.055-.021-.083-.062-.083-.014.014-.022.025-.022.031a.053.053,0,0,1-.02.032m.1.791c.07,0,.1-.028.1-.083-.069,0-.1.027-.1.083m.021-.208c.055.083.119.1.187.042a.3.3,0,0,0-.021-.125c0,.069-.02.093-.062.072a.083.083,0,0,0-.1.011m.063-5.885a.193.193,0,0,0,.124,0,.191.191,0,0,1,.125,0,.277.277,0,0,1,0-.145.487.487,0,0,0-.146.021.138.138,0,0,1-.124-.021c-.027.027-.031.053-.01.073a.1.1,0,0,1,.031.073m.166,5.7.062-.061a.05.05,0,0,1-.052-.031c-.006-.021-.031-.024-.073-.01,0,.083.021.118.063.1m.083.125c.014,0,.022,0,.022.012s.007.009.021.009c0-.041-.014-.054-.043-.041Zm.083-5.447c.027-.015.043-.015.043,0s.014.013.041,0a.048.048,0,0,0,.011-.052c-.007-.02,0-.039.031-.053-.055-.027-.1-.01-.135.053s-.031.079.01.052m.125-.229a.106.106,0,0,0,0-.094c-.014-.034-.042-.045-.082-.032-.029.083,0,.125.082.125m.208-.561v.083a.063.063,0,0,1,.053-.042c.02,0,.038-.013.052-.041-.028-.014-.045-.014-.052,0s-.024.014-.053,0m.063,13.516c0-.055-.021-.083-.063-.083a.182.182,0,0,1,.021.073c0,.02.014.024.043.01M176.364,40c.028,0,.043,0,.043-.011s.014-.01.041-.01c.014-.041,0-.058-.051-.053s-.06.033-.033.074m.208-5.261c-.013,0-.026-.013-.041-.041s-.021-.027-.021,0a.057.057,0,0,0,.021.041.025.025,0,0,0,.041,0m.4,5.095a.7.7,0,0,0,.011.135.091.091,0,0,1-.053.093c-.07-.013-.132-.024-.187-.031a.22.22,0,0,0-.146.031.239.239,0,0,1,0,.2,1.1,1.1,0,0,0-.062.2.15.15,0,0,0,.166.02.188.188,0,0,0,.1-.124.129.129,0,0,1-.136-.084.119.119,0,0,1,.052-.146h.2a.522.522,0,0,1,.2.042.146.146,0,0,1-.073-.177,1.191,1.191,0,0,1,.052-.156c0,.027-.018.041-.052.041a.074.074,0,0,1-.071-.041m-.376-4.284c.028,0,.038-.007.031-.021a.035.035,0,0,1,.012-.041h-.043Zm.168.083a.074.074,0,0,0-.083-.083.053.053,0,0,0,.02.072c.028.022.049.026.063.012m.1,4.283c.014-.014.006-.041-.02-.083a.068.068,0,0,0-.021.053c0,.021.013.03.041.03m.083-.145c-.027,0-.041.007-.041.02.027,0,.041-.008.041-.02m.395,1.061c-.015-.029-.015-.046,0-.053s.021-.024.021-.052a.234.234,0,0,0-.166-.043.163.163,0,0,0,.145.147m-.061-6.011c.055,0,.076-.014.061-.042-.042,0-.061.014-.061.042m.145,4.907c.027,0,.041-.019.041-.062s-.014-.063-.041-.063a.131.131,0,0,0-.031.063.049.049,0,0,0,.031.062m.145-3.784c.056,0,.073-.022.052-.063a.176.176,0,0,0-.073-.083c.028.028.035.053.021.073a.067.067,0,0,0,0,.073m0,4.6c.028,0,.042,0,.042.011s.007,0,.021-.033c-.014-.014-.035-.006-.063.022m.083-.895c.014-.043,0-.062-.042-.062,0,.041.014.062.042.062m.021-4.575a.043.043,0,0,1,.031.01.04.04,0,0,0,.032.01.147.147,0,0,0,.02-.167c-.069,0-.1.008-.1.022.043.013.058.03.052.051a.565.565,0,0,1-.031.073m.206,5.489a.355.355,0,0,0-.185-.1.131.131,0,0,0,.185.1m.022-.811a.085.085,0,0,0,.021.063c.014.014.014.035,0,.062a.123.123,0,0,0,.093-.031.13.13,0,0,1,.094-.031c.041.041.077.055.1.041.043-.013.062-.054.062-.125-.04.014-.069.008-.082-.019a.141.141,0,0,0-.063-.063.182.182,0,0,1-.114.052.206.206,0,0,0-.114.052m.021.417a.285.285,0,0,1,.041.333h.083a.72.72,0,0,0,.043-.271c0-.111-.056-.131-.167-.062m.062-.749c0,.028.007.047.021.054a.031.031,0,0,1,.021.031c.055-.028.1-.031.125-.01s.062.016.1-.011a.093.093,0,0,0-.1-.1.3.3,0,0,0-.167.041m.1-3.763a.239.239,0,0,0,.124.083q.083-.1-.01-.167c-.063-.041-.1-.013-.114.084m.1,7.651a.047.047,0,0,0,.051-.031.1.1,0,0,1,.053-.052.043.043,0,0,1-.031-.01.044.044,0,0,0-.031-.01.136.136,0,0,0-.042.1m.1-3.035a.176.176,0,0,1-.022-.072c0-.022-.013-.032-.04-.032-.029.028-.008.062.062.1m-.062-.167a.482.482,0,0,1,.1.063.214.214,0,0,1,.166-.207c0-.043-.028-.062-.083-.062,0,.069-.024.093-.072.072a.167.167,0,0,1-.093-.072.672.672,0,0,0-.021.207m.062-.894a.018.018,0,0,1,.02-.02c0-.041-.014-.049-.042-.02,0,.028.008.041.022.041m0,.292c.013.026.023.024.031-.01s0-.031-.031.01m.02-4.056.021.022c0-.042-.008-.055-.021-.042Zm.062,4.056c.028,0,.042,0,.042-.01s.008-.011.021-.011c0-.055.006-.09.022-.1-.043-.041-.077-.055-.1-.041a.469.469,0,0,0,.02.167m.063.332c0-.028.034-.042.1-.042a.062.062,0,0,1,.032.074c-.007.033,0,.051.031.051.027-.055.083-.069.167-.041a.065.065,0,0,0-.052-.073c-.035-.007-.053-.031-.053-.074a.278.278,0,0,1-.156,0,1.387,1.387,0,0,1-.136-.062c0,.112.021.167.063.167m-.021-1.684a.455.455,0,0,0,.073.062c.021.014.025.056.011.124.028.014.059.029.094.043a.165.165,0,0,0,.114,0,.774.774,0,0,1-.032-.073.252.252,0,0,1-.01-.073c-.042.014-.069.007-.082-.022a.162.162,0,0,1-.022-.083.492.492,0,0,0-.011-.094.138.138,0,0,0-.03-.072.126.126,0,0,1-.073.083c-.035.015-.045.049-.032.105m.021-2.87h.042c0-.028-.014-.028-.042,0m.1,3.993c.014-.014.006-.035-.02-.063,0,.042.007.063.02.063m.043-3.182c-.016,0-.022,0-.022-.011s-.007-.01-.021-.01c-.027.028-.025.042.01.042s.046-.007.033-.02m.04,1.1c-.013,0-.02,0-.02-.01s-.014-.011-.041-.011c-.015.029-.007.046.022.052s.04,0,.04-.032m-.062-4.22a.093.093,0,0,1,.052.052.048.048,0,0,0,.051.031c.056-.083.035-.126-.062-.126Zm.083,3.576h-.042c.014,0,.02.007.02.022s.007.007.021-.022m.02-1c0-.028,0-.069.01-.125s0-.089-.031-.1c-.028.123-.021.2.02.228m0,.478c.013,0,.024-.013.032-.041s0-.041-.032-.041a.063.063,0,0,0-.02.041c0,.028.007.041.02.041m0-2.494.042.083c0-.056-.014-.083-.042-.083m.083,9.939c-.028,0-.039-.006-.031-.02s0-.021-.031-.021c-.014.028-.011.049.011.063s.037.006.051-.021m.021-7.174c0-.014-.029-.035-.083-.062,0,.027.007.041.021.041a.169.169,0,0,1,.063.02m-.063,7.382c.041,0,.063-.027.063-.083-.07,0-.091.028-.063.083m0-10.522c.041.028.059.026.052-.009s-.025-.033-.052.009m.02,2.5a.091.091,0,0,1,.053.062.05.05,0,0,0,.052.042.227.227,0,0,0-.062-.208c0,.028-.008.045-.021.051s-.022.024-.022.053m.022,3.222a.19.19,0,0,1,.052.073.2.2,0,0,0,.053.073c0-.014.02-.02.062-.02a.287.287,0,0,1,.114-.25.3.3,0,0,0,.135-.187c-.027.028-.051.031-.072.01a.259.259,0,0,1-.052-.073.365.365,0,0,1-.291.374m.021,4.6a.346.346,0,0,0,.1.041c-.014-.041-.01-.069.011-.083a.072.072,0,0,0,.031-.063c-.029-.027-.052-.052-.073-.072s-.011-.045.031-.073a.172.172,0,0,0-.1-.02.059.059,0,0,0-.01.063.121.121,0,0,1-.011.082h.125c.013.083-.02.125-.1.125m0-10.085a.047.047,0,0,0,.051-.031c.007-.02,0-.038-.031-.052a.039.039,0,0,1-.011.031c-.007.006-.01.025-.01.052m.062,6.2h.062c-.014-.028-.014-.046,0-.051s.014-.025,0-.053a.072.072,0,0,0-.062.032.068.068,0,0,0,0,.073m.042.126c0,.069.007.079.02.031s.007-.059-.02-.031m.02-3.369a.146.146,0,0,0,.1,0v-.1c-.041-.028-.073-.028-.094,0a.112.112,0,0,0-.01.1m.229-.25a.189.189,0,0,0-.083-.137.939.939,0,0,1-.125-.072c.027.055.052.1.073.136a.193.193,0,0,0,.135.073m-.1-3.162c.027.028.053.026.073-.01a.188.188,0,0,0,.031-.094h-.083c.013.028.013.045,0,.053s-.022.025-.022.051m.083.126a.07.07,0,0,0-.03-.063c-.021-.013-.031-.007-.031.02a.019.019,0,0,1,.02.022c0,.014.014.021.042.021m-.042,3.431c.014.028.025.028.032,0s0-.028-.032,0m.063,10.73a.1.1,0,0,0-.011.114.521.521,0,0,0,.073.093c.014-.027.045-.038.094-.031s.073,0,.073-.031a.082.082,0,0,0-.062.02.048.048,0,0,0-.032-.051c-.022-.007-.032-.024-.032-.053a.117.117,0,0,0,.083-.041c.027-.028.021-.048-.02-.063,0,.027-.056.041-.167.041m.041-3.743v-.062h-.062a.055.055,0,0,0,.062.062m0-6.3a.018.018,0,0,0-.02.02h.042c0-.014-.007-.02-.021-.02m.043,1.122a.02.02,0,0,0-.021.022h.041a.019.019,0,0,0-.02-.022m.042,4.991c-.042,0-.063.008-.063.02.041.042.063.036.063-.02m-.022-5.946c.029.027.039.027.032,0s-.018-.028-.032,0m.043.727c-.029,0-.039-.01-.033-.032s0-.03-.01-.03a.286.286,0,0,0,.01.062c.008.027.019.027.033,0m.1-.852a.155.155,0,0,0,.114.042.154.154,0,0,1,.114.042.136.136,0,0,1,0,.145.091.091,0,0,0,.02.125.511.511,0,0,0,.052-.178,1.528,1.528,0,0,0,.011-.2.13.13,0,0,0-.145-.042.476.476,0,0,0-.166.063m.082,9.98c.056.029.066.063.032.1a.309.309,0,0,1-.094.082.081.081,0,0,0,.114-.01.139.139,0,0,0,.053-.094c.055.029.1.022.125-.02s.022-.069-.021-.083c-.013.07-.044.087-.093.053s-.087-.047-.115-.033m0-9.377c.027,0,.043,0,.043.01s.006.009.02.009c0-.027,0-.04.01-.04s0-.008-.03-.022Zm.187,5.822c-.013.028-.013.041,0,.041s.021.014.021.042c-.041.07-.09.077-.145.022,0,.055.021.072.062.051a.251.251,0,0,1,.1-.031c0-.069.014-.111.043-.125a.059.059,0,0,1-.054-.02c-.007-.014-.018-.006-.031.02m-.041.6c.013.069.032.138.052.207a.3.3,0,0,1-.011.208.088.088,0,0,0,.064-.094.087.087,0,0,1,.062-.093c-.112-.056-.132-.122-.062-.2a.126.126,0,0,1,.207-.01.055.055,0,0,0-.062-.063c-.041,0-.055-.035-.041-.1-.056.027-.091.02-.1-.022s-.035-.048-.064-.02c.057.014.069.045.042.094a.248.248,0,0,1-.083.094m0,2.473c.028-.014.041-.014.041,0s.014.02.042.02a.1.1,0,0,0,.022-.1c-.043,0-.077.027-.1.083m.146-3.056a.107.107,0,0,1,.053.02c.02.014.036.007.051-.02-.014,0-.021-.029-.021-.084-.027,0-.055.029-.083.084m.062,1.164a.335.335,0,0,1,.041.135.577.577,0,0,1-.021.135.07.07,0,0,0,.093.01c.035-.021.067-.038.094-.052a.141.141,0,0,1-.083-.135.392.392,0,0,1,.041-.177.135.135,0,0,1-.082-.031.058.058,0,0,0-.083.009.1.1,0,0,1,.052.062c.006.029-.011.043-.052.043m.02,1.7a.042.042,0,0,1,.032.011c.006.006.023,0,.051-.011a.114.114,0,0,0-.042-.083c0,.026-.006.04-.02.04s-.021.014-.021.043m.166-.374c-.069-.014-.092-.01-.073.01s.045.017.073-.01m.021-.291c-.014.07-.01.079.01.031s.018-.059-.01-.031m.229-1.019a.117.117,0,0,0,.041-.083c-.055.014-.092.01-.114-.012a.131.131,0,0,0-.094-.031.267.267,0,0,0,.167.125m-.167.271a.1.1,0,0,0,.053.092c.033.022.038.045.01.073.1-.028.144-.076.144-.144-.055.013-.087,0-.092-.043s-.04-.056-.094-.042c0,.042-.008.063-.021.063m.271.894c0,.069.028.086.082.051s.1-.039.126-.011a.063.063,0,0,1,0-.071c.012-.022.006-.032-.022-.032-.028.041-.091.063-.187.063m.1-1.435h-.043l-.019.02c.041,0,.062-.007.062-.02m.04-10.211a.194.194,0,0,1,.21-.144c-.014-.07-.069-.1-.167-.1a.5.5,0,0,1-.062.124.09.09,0,0,0,.019.124m.355.187a.08.08,0,0,0-.073-.01.141.141,0,0,1-.093-.009c-.015.04.011.062.073.062s.093-.014.093-.043m-.063-.831c0,.014.014.035.041.062.028-.028.043-.049.043-.062-.027,0-.039-.007-.032-.021s0-.014-.03,0Zm.063.936c-.028.028-.028.041,0,.041s.028-.013,0-.041m.021-1.373a.086.086,0,0,0,.062-.02c-.042,0-.062.006-.062.02m.395,1.164c.028,0,.039.015.031.042a.263.263,0,0,0-.01.062c.055,0,.1-.042.125-.124-.056-.055-.1-.049-.146.02m.25-.269c-.015.013-.021.013-.021,0a.018.018,0,0,0-.02-.02c-.042.026-.045.055-.009.082s.051.007.051-.062" transform="translate(-102.207 -19.387)" fill="#fff"/>
      <path id="Path_49" data-name="Path 49" d="M98.313,18.669V15.714H97.7V15.16h1.333v.482a1.283,1.283,0,0,1,1.036-.538,1.235,1.235,0,0,1,1.228.771,1.343,1.343,0,0,1,1.2-.771c.859,0,1.405.562,1.405,1.686v1.879h.61v.554h-1.332V16.951c0-.867-.305-1.253-.852-1.253-.473,0-.714.466-.867.915a1.355,1.355,0,0,1,.008.176v1.879h.6v.554h-1.325V16.951c0-.867-.305-1.253-.851-1.253-.458,0-.739.482-.867.948v2.023h.61v.554H97.7v-.554Z" transform="translate(-58.49 -9.042)" fill="#fff"/>
      <path id="Path_50" data-name="Path 50" d="M117.8,15.123a1.737,1.737,0,0,1,1.341.546v-.5h.723V18.68h.618v.554h-1.341v-.5a1.744,1.744,0,0,1-1.341.538,1.859,1.859,0,0,1-1.814-2.087,1.846,1.846,0,0,1,1.814-2.063M116.731,17.2a1.305,1.305,0,0,0,1.261,1.446,1.166,1.166,0,0,0,1.148-.891v-1.1a1.166,1.166,0,0,0-1.148-.891,1.3,1.3,0,0,0-1.261,1.437" transform="translate(-69.434 -9.053)" fill="#fff"/>
      <path id="Path_51" data-name="Path 51" d="M130.338,12.836a1.728,1.728,0,0,1,1.349.578V11.848h-.626V11.3h1.349v5.091h.61v.554h-1.333v-.53a1.8,1.8,0,0,1-1.349.57,1.859,1.859,0,0,1-1.814-2.087,1.846,1.846,0,0,1,1.814-2.063m-1.068,2.079a1.305,1.305,0,0,0,1.261,1.446,1.153,1.153,0,0,0,1.156-.916v-1.06a1.176,1.176,0,0,0-1.156-.907,1.3,1.3,0,0,0-1.261,1.437" transform="translate(-76.941 -6.766)" fill="#fff"/>
      <path id="Path_52" data-name="Path 52" d="M143.006,15.123A1.8,1.8,0,0,1,144.9,17.1c0,.08-.016.362-.016.45H141.8a1.3,1.3,0,0,0,1.357,1.1A1.785,1.785,0,0,0,144.524,18l.185.586a2.169,2.169,0,0,1-1.686.69,1.925,1.925,0,0,1-2-2.087,1.923,1.923,0,0,1,1.983-2.063m1.277,1.863a1.2,1.2,0,0,0-1.253-1.268,1.269,1.269,0,0,0-1.261,1.268Z" transform="translate(-84.423 -9.053)" fill="#fff"/>
      <path id="Path_53" data-name="Path 53" d="M159.116,11.3v2.1a1.813,1.813,0,0,1,1.348-.562,1.84,1.84,0,0,1,1.806,2.063,1.853,1.853,0,0,1-1.806,2.087,1.8,1.8,0,0,1-1.348-.57v.53h-1.333v-.554h.61V11.849h-.61V11.3Zm0,4.143a1.15,1.15,0,0,0,1.155.915,1.31,1.31,0,0,0,1.261-1.445,1.3,1.3,0,0,0-1.261-1.437,1.189,1.189,0,0,0-1.155.907Z" transform="translate(-94.457 -6.767)" fill="#fff"/>
      <path id="Path_54" data-name="Path 54" d="M170.144,15.8v-.554h1.975V15.8h-.562l1.036,2.915,1.06-2.915h-.562v-.554h1.967V15.8h-.674l-1.542,4.03a1.086,1.086,0,0,1-1.133.859,2.23,2.23,0,0,1-.779-.144l.137-.57a1.593,1.593,0,0,0,.626.136.591.591,0,0,0,.53-.393l.153-.41h-.225L170.819,15.8Z" transform="translate(-101.857 -9.125)" fill="#fff"/>
      <path id="Path_55" data-name="Path 55" d="M73.911,32.849H16.424A16.424,16.424,0,0,1,16.424,0H73.911a16.424,16.424,0,1,1,0,32.849M16.424.8a15.622,15.622,0,0,0,0,31.243H73.911A15.622,15.622,0,1,0,73.911.8Z" transform="translate(0 0)" fill="#fff"/>
      <path id="Path_56" data-name="Path 56" d="M32.849,32.849H16.424A16.424,16.424,0,0,1,16.424,0H32.849ZM16.424.8a15.622,15.622,0,0,0,0,31.243H32.046V.8Z" transform="translate(0 0)" fill="#fff"/>
      <path id="Path_57" data-name="Path 57" d="M26.785,21.353c.035-.057.059-.1.084-.135a6.59,6.59,0,0,1,2.355-2.282,5.322,5.322,0,0,1,2.071-.67,5.474,5.474,0,0,1,4.258,1.266,5.266,5.266,0,0,1,1.788,3.1,6.163,6.163,0,0,1,.1,1.253,12.318,12.318,0,0,1-.154,1.906,7.831,7.831,0,0,1-1.318,3.247,13.728,13.728,0,0,1-1.65,1.9c-.755.742-1.553,1.437-2.353,2.13-1.444,1.251-2.89,2.5-4.29,3.8-.265.246-.528.494-.792.742l-.1.09c-.028-.022-.053-.038-.074-.059-1.683-1.6-3.44-3.122-5.2-4.643-.838-.726-1.674-1.455-2.457-2.242a12.462,12.462,0,0,1-1.6-1.913,7.745,7.745,0,0,1-1.159-2.9,11.16,11.16,0,0,1-.177-2.451,5.373,5.373,0,0,1,4.106-5.1,5.618,5.618,0,0,1,4.745.952A6.8,6.8,0,0,1,26.7,21.218c.024.039.05.078.088.135" transform="translate(-9.65 -10.909)" fill="#ffdf00"/>
    </g>
  </g>
</svg>
